<?xml version="1.0" encoding="UTF-8" standalone="no"?>
<!DOCTYPE svg PUBLIC "-//W3C//DTD SVG 1.1//EN"
 "http://www.w3.org/Graphics/SVG/1.1/DTD/svg11.dtd">
<!-- Generated by graphviz version 12.2.1 (20241206.2353)
 -->
<!-- Title: mimicpp::signature_remove_ref_qualifier&lt; Signature &gt; Pages: 1 -->
<svg width="453pt" height="846pt"
 viewBox="0.00 0.00 453.25 846.37" xmlns="http://www.w3.org/2000/svg" xmlns:xlink="http://www.w3.org/1999/xlink">
<g id="graph0" class="graph" transform="scale(1 1) rotate(0) translate(4 842.37)">
<title>mimicpp::signature_remove_ref_qualifier&lt; Signature &gt;</title>
<!-- Node1 -->
<g id="Node000001" class="node">
<title>Node1</title>
<g id="a_Node000001"><a xlink:title="Primary template, purposely undefined.">
<polygon fill="#999999" stroke="#666666" points="108.25,-437.38 0,-437.38 0,-395.62 108.25,-395.62 108.25,-437.38"/>
<text text-anchor="start" x="8" y="-423.88" font-family="Helvetica,sans-Serif" font-size="10.00">mimicpp::signature</text>
<text text-anchor="start" x="8" y="-412.62" font-family="Helvetica,sans-Serif" font-size="10.00">_remove_ref_qualifier</text>
<text text-anchor="middle" x="54.12" y="-401.38" font-family="Helvetica,sans-Serif" font-size="10.00">&lt; Signature &gt;</text>
</a>
</g>
</g>
<!-- Node1&#45;&gt;Node1 -->
<g id="edge1_Node000001_Node000001" class="edge">
<title>Node1&#45;&gt;Node1</title>
<g id="a_edge1_Node000001_Node000001"><a xlink:title=" ">
<path fill="none" stroke="orange" stroke-dasharray="5,2" d="M42.5,-448.82C44.58,-452.78 48.45,-455.38 54.12,-455.38 64.21,-455.38 68.62,-447.17 67.36,-437.69"/>
<polygon fill="orange" stroke="orange" points="46,-448.59 41.11,-439.19 39.07,-449.59 46,-448.59"/>
</a>
</g>
<text text-anchor="middle" x="54.12" y="-457.12" font-family="Helvetica,sans-Serif" font-size="10.00" fill="grey"> &lt; Signature &gt;</text>
</g>
<!-- Node1&#45;&gt;Node1 -->
<g id="edge14_Node000001_Node000001" class="edge">
<title>Node1&#45;&gt;Node1</title>
<g id="a_edge14_Node000001_Node000001"><a xlink:title=" ">
<path fill="none" stroke="orange" stroke-dasharray="5,2" d="M27.52,-448.36C25.51,-461.86 34.38,-473.38 54.12,-473.38 78.91,-473.38 86.56,-455.25 77.07,-437.8"/>
<polygon fill="orange" stroke="orange" points="30.72,-449.82 30.69,-439.23 24.1,-447.53 30.72,-449.82"/>
</a>
</g>
<text text-anchor="middle" x="54.12" y="-475.12" font-family="Helvetica,sans-Serif" font-size="10.00" fill="grey"> &lt; Signature &gt;</text>
</g>
<!-- Node2 -->
<g id="Node000002" class="node">
<title>Node2</title>
<g id="a_Node000002"><a xlink:href="../../dd/da3/structmimicpp_1_1signature__remove__ref__qualifier_3_01_return_07_params_8_8_8_08_01_6_6noexcept_07_is_noexcept_08_4.html" target="_top" xlink:title=" ">
<polygon fill="white" stroke="#666666" points="443,-834 289,-834 289,-781 443,-781 443,-834"/>
<text text-anchor="start" x="297" y="-820.5" font-family="Helvetica,sans-Serif" font-size="10.00">mimicpp::signature</text>
<text text-anchor="start" x="297" y="-809.25" font-family="Helvetica,sans-Serif" font-size="10.00">_remove_ref_qualifier</text>
<text text-anchor="start" x="297" y="-798" font-family="Helvetica,sans-Serif" font-size="10.00">&lt; Return(Params...) &amp;&amp;noexcept</text>
<text text-anchor="middle" x="366" y="-786.75" font-family="Helvetica,sans-Serif" font-size="10.00">(IsNoexcept)&gt;</text>
</a>
</g>
</g>
<!-- Node1&#45;&gt;Node2 -->
<g id="edge2_Node000001_Node000002" class="edge">
<title>Node1&#45;&gt;Node2</title>
<g id="a_edge2_Node000001_Node000002"><a xlink:title=" ">
<path fill="none" stroke="orange" stroke-dasharray="5,2" d="M57.07,-448.68C62.47,-527 80.44,-724.38 126.25,-768.5 168.67,-809.36 236.27,-817.16 288.73,-815.85"/>
<polygon fill="orange" stroke="orange" points="60.58,-448.85 56.43,-439.11 53.6,-449.31 60.58,-448.85"/>
</a>
</g>
<text text-anchor="start" x="139.38" y="-828.87" font-family="Helvetica,sans-Serif" font-size="10.00" fill="grey"> &lt; Return(Params...)</text>
<text text-anchor="middle" x="197.5" y="-817.62" font-family="Helvetica,sans-Serif" font-size="10.00" fill="grey"> &amp;&amp;noexcept(IsNoexcept)&gt;</text>
</g>
<!-- Node3 -->
<g id="Node000003" class="node">
<title>Node3</title>
<g id="a_Node000003"><a xlink:href="../../d9/d05/structmimicpp_1_1signature__remove__ref__qualifier_3_01_return_07_params_8_8_8_08_01const_01_6_6noexcept_07_is_noexcept_08_4.html" target="_top" xlink:title=" ">
<polygon fill="white" stroke="#666666" points="432.12,-763 299.88,-763 299.88,-710 432.12,-710 432.12,-763"/>
<text text-anchor="start" x="307.88" y="-749.5" font-family="Helvetica,sans-Serif" font-size="10.00">mimicpp::signature</text>
<text text-anchor="start" x="307.88" y="-738.25" font-family="Helvetica,sans-Serif" font-size="10.00">_remove_ref_qualifier</text>
<text text-anchor="start" x="307.88" y="-727" font-family="Helvetica,sans-Serif" font-size="10.00">&lt; Return(Params...) const</text>
<text text-anchor="middle" x="366" y="-715.75" font-family="Helvetica,sans-Serif" font-size="10.00"> &amp;&amp;noexcept(IsNoexcept)&gt;</text>
</a>
</g>
</g>
<!-- Node1&#45;&gt;Node3 -->
<g id="edge3_Node000001_Node000003" class="edge">
<title>Node1&#45;&gt;Node3</title>
<g id="a_edge3_Node000001_Node000003"><a xlink:title=" ">
<path fill="none" stroke="orange" stroke-dasharray="5,2" d="M59.04,-448.8C67.68,-514.49 90.47,-660.25 126.25,-693.5 172.45,-736.44 246.29,-743.85 299.63,-742.62"/>
<polygon fill="orange" stroke="orange" points="62.53,-448.48 57.79,-439.01 55.59,-449.38 62.53,-448.48"/>
</a>
</g>
<text text-anchor="start" x="126.25" y="-754.96" font-family="Helvetica,sans-Serif" font-size="10.00" fill="grey"> &lt; Return(Params...)</text>
<text text-anchor="middle" x="197.5" y="-743.71" font-family="Helvetica,sans-Serif" font-size="10.00" fill="grey"> const &amp;&amp;noexcept(IsNoexcept)&gt;</text>
</g>
<!-- Node4 -->
<g id="Node000004" class="node">
<title>Node4</title>
<g id="a_Node000004"><a xlink:href="../../d6/d7c/structmimicpp_1_1signature__remove__ref__qualifier_3_01_return_07_params_8_8_8_08_01const_01_6noexcept_07_is_noexcept_08_4.html" target="_top" xlink:title=" ">
<polygon fill="white" stroke="#666666" points="428.75,-692 303.25,-692 303.25,-639 428.75,-639 428.75,-692"/>
<text text-anchor="start" x="311.25" y="-678.5" font-family="Helvetica,sans-Serif" font-size="10.00">mimicpp::signature</text>
<text text-anchor="start" x="311.25" y="-667.25" font-family="Helvetica,sans-Serif" font-size="10.00">_remove_ref_qualifier</text>
<text text-anchor="start" x="311.25" y="-656" font-family="Helvetica,sans-Serif" font-size="10.00">&lt; Return(Params...) const</text>
<text text-anchor="middle" x="366" y="-644.75" font-family="Helvetica,sans-Serif" font-size="10.00"> &amp;noexcept(IsNoexcept)&gt;</text>
</a>
</g>
</g>
<!-- Node1&#45;&gt;Node4 -->
<g id="edge4_Node000001_Node000004" class="edge">
<title>Node1&#45;&gt;Node4</title>
<g id="a_edge4_Node000001_Node000004"><a xlink:title=" ">
<path fill="none" stroke="orange" stroke-dasharray="5,2" d="M57.15,-449.12C61.75,-493.84 76.83,-573.53 126.25,-616.5 174.78,-658.7 249.85,-668.07 302.84,-668.71"/>
<polygon fill="orange" stroke="orange" points="60.64,-448.91 56.26,-439.26 53.67,-449.54 60.64,-448.91"/>
</a>
</g>
<text text-anchor="start" x="129.62" y="-679.67" font-family="Helvetica,sans-Serif" font-size="10.00" fill="grey"> &lt; Return(Params...)</text>
<text text-anchor="middle" x="197.5" y="-668.42" font-family="Helvetica,sans-Serif" font-size="10.00" fill="grey"> const &amp;noexcept(IsNoexcept)&gt;</text>
</g>
<!-- Node5 -->
<g id="Node000005" class="node">
<title>Node5</title>
<g id="a_Node000005"><a xlink:href="../../df/d6f/structmimicpp_1_1signature__remove__ref__qualifier_3_01_return_07_params_8_8_8_08_01const_01noexcept_07_is_noexcept_08_4.html" target="_top" xlink:title=" ">
<polygon fill="white" stroke="#666666" points="428.75,-621 303.25,-621 303.25,-568 428.75,-568 428.75,-621"/>
<text text-anchor="start" x="311.25" y="-607.5" font-family="Helvetica,sans-Serif" font-size="10.00">mimicpp::signature</text>
<text text-anchor="start" x="311.25" y="-596.25" font-family="Helvetica,sans-Serif" font-size="10.00">_remove_ref_qualifier</text>
<text text-anchor="start" x="311.25" y="-585" font-family="Helvetica,sans-Serif" font-size="10.00">&lt; Return(Params...) const</text>
<text text-anchor="middle" x="366" y="-573.75" font-family="Helvetica,sans-Serif" font-size="10.00"> noexcept(IsNoexcept)&gt;</text>
</a>
</g>
</g>
<!-- Node1&#45;&gt;Node5 -->
<g id="edge5_Node000001_Node000005" class="edge">
<title>Node1&#45;&gt;Node5</title>
<g id="a_edge5_Node000001_Node000005"><a xlink:title=" ">
<path fill="none" stroke="orange" stroke-dasharray="5,2" d="M65.17,-448.01C75.82,-476.28 95.43,-516.72 126.25,-539.5 177.73,-577.55 251.2,-589.87 303.01,-593.56"/>
<polygon fill="orange" stroke="orange" points="68.57,-447.13 61.9,-438.89 61.98,-449.49 68.57,-447.13"/>
</a>
</g>
<text text-anchor="start" x="133" y="-602.75" font-family="Helvetica,sans-Serif" font-size="10.00" fill="grey"> &lt; Return(Params...)</text>
<text text-anchor="middle" x="197.5" y="-591.5" font-family="Helvetica,sans-Serif" font-size="10.00" fill="grey"> const noexcept(IsNoexcept)&gt;</text>
</g>
<!-- Node6 -->
<g id="Node000006" class="node">
<title>Node6</title>
<g id="a_Node000006"><a xlink:href="../../db/d2c/structmimicpp_1_1signature__remove__ref__qualifier_3_01_return_07_params_8_8_8_08_01noexcept_07_is_noexcept_08_4.html" target="_top" xlink:title=" ">
<polygon fill="white" stroke="#666666" points="436.25,-550 295.75,-550 295.75,-497 436.25,-497 436.25,-550"/>
<text text-anchor="start" x="303.75" y="-536.5" font-family="Helvetica,sans-Serif" font-size="10.00">mimicpp::signature</text>
<text text-anchor="start" x="303.75" y="-525.25" font-family="Helvetica,sans-Serif" font-size="10.00">_remove_ref_qualifier</text>
<text text-anchor="start" x="303.75" y="-514" font-family="Helvetica,sans-Serif" font-size="10.00">&lt; Return(Params...) noexcept</text>
<text text-anchor="middle" x="366" y="-502.75" font-family="Helvetica,sans-Serif" font-size="10.00">(IsNoexcept)&gt;</text>
</a>
</g>
</g>
<!-- Node1&#45;&gt;Node6 -->
<g id="edge6_Node000001_Node000006" class="edge">
<title>Node1&#45;&gt;Node6</title>
<g id="a_edge6_Node000001_Node000006"><a xlink:title=" ">
<path fill="none" stroke="orange" stroke-dasharray="5,2" d="M85.34,-445.29C97.28,-455.26 111.62,-465.64 126.25,-472.5 179.97,-497.71 246.34,-510.6 295.45,-517.1"/>
<polygon fill="orange" stroke="orange" points="87.71,-442.71 77.86,-438.81 83.13,-448 87.71,-442.71"/>
</a>
</g>
<text text-anchor="start" x="146.12" y="-525.51" font-family="Helvetica,sans-Serif" font-size="10.00" fill="grey"> &lt; Return(Params...)</text>
<text text-anchor="middle" x="197.5" y="-514.26" font-family="Helvetica,sans-Serif" font-size="10.00" fill="grey"> noexcept(IsNoexcept)&gt;</text>
</g>
<!-- Node7 -->
<g id="Node000007" class="node">
<title>Node7</title>
<g id="a_Node000007"><a xlink:href="../../d0/d4d/structmimicpp_1_1signature__remove__ref__qualifier_3_01_return_07_params_8_8_8_08_6noexcept_07_is_noexcept_08_4.html" target="_top" xlink:title=" ">
<polygon fill="white" stroke="#666666" points="438.5,-479 293.5,-479 293.5,-426 438.5,-426 438.5,-479"/>
<text text-anchor="start" x="301.5" y="-465.5" font-family="Helvetica,sans-Serif" font-size="10.00">mimicpp::signature</text>
<text text-anchor="start" x="301.5" y="-454.25" font-family="Helvetica,sans-Serif" font-size="10.00">_remove_ref_qualifier</text>
<text text-anchor="start" x="301.5" y="-443" font-family="Helvetica,sans-Serif" font-size="10.00">&lt; Return(Params...)&amp;noexcept</text>
<text text-anchor="middle" x="366" y="-431.75" font-family="Helvetica,sans-Serif" font-size="10.00">(IsNoexcept)&gt;</text>
</a>
</g>
</g>
<!-- Node1&#45;&gt;Node7 -->
<g id="edge7_Node000001_Node000007" class="edge">
<title>Node1&#45;&gt;Node7</title>
<g id="a_edge7_Node000001_Node000007"><a xlink:title=" ">
<path fill="none" stroke="orange" stroke-dasharray="5,2" d="M119.72,-429.51C121.92,-429.86 124.1,-430.19 126.25,-430.5 182.08,-438.54 245.69,-444.24 293.21,-447.81"/>
<polygon fill="orange" stroke="orange" points="120.55,-426.1 110.11,-427.89 119.39,-433 120.55,-426.1"/>
</a>
</g>
<text text-anchor="start" x="143.88" y="-458.82" font-family="Helvetica,sans-Serif" font-size="10.00" fill="grey"> &lt; Return(Params...)</text>
<text text-anchor="middle" x="197.5" y="-447.57" font-family="Helvetica,sans-Serif" font-size="10.00" fill="grey">&amp;noexcept(IsNoexcept)&gt;</text>
</g>
<!-- Node8 -->
<g id="Node000008" class="node">
<title>Node8</title>
<g id="a_Node000008"><a xlink:href="../../da/d74/structmimicpp_1_1signature__remove__ref__qualifier_3_01_return_07_params_8_8_8_00_8_8_8_08_01_6_6noexcept_07_is_noexcept_08_4.html" target="_top" xlink:title=" ">
<polygon fill="white" stroke="#666666" points="432.12,-408 299.88,-408 299.88,-355 432.12,-355 432.12,-408"/>
<text text-anchor="start" x="307.88" y="-394.5" font-family="Helvetica,sans-Serif" font-size="10.00">mimicpp::signature</text>
<text text-anchor="start" x="307.88" y="-383.25" font-family="Helvetica,sans-Serif" font-size="10.00">_remove_ref_qualifier</text>
<text text-anchor="start" x="307.88" y="-372" font-family="Helvetica,sans-Serif" font-size="10.00">&lt; Return(Params...,...)</text>
<text text-anchor="middle" x="366" y="-360.75" font-family="Helvetica,sans-Serif" font-size="10.00"> &amp;&amp;noexcept(IsNoexcept)&gt;</text>
</a>
</g>
</g>
<!-- Node1&#45;&gt;Node8 -->
<g id="edge8_Node000001_Node000008" class="edge">
<title>Node1&#45;&gt;Node8</title>
<g id="a_edge8_Node000001_Node000008"><a xlink:title=" ">
<path fill="none" stroke="orange" stroke-dasharray="5,2" d="M120.04,-408.72C122.13,-408.48 124.21,-408.24 126.25,-408 184.87,-401.24 251.63,-393.86 299.62,-388.61"/>
<polygon fill="orange" stroke="orange" points="119.74,-405.23 110.22,-409.87 120.56,-412.18 119.74,-405.23"/>
</a>
</g>
<text text-anchor="start" x="134.5" y="-421" font-family="Helvetica,sans-Serif" font-size="10.00" fill="grey"> &lt; Return(Params...,</text>
<text text-anchor="middle" x="197.5" y="-409.75" font-family="Helvetica,sans-Serif" font-size="10.00" fill="grey">...) &amp;&amp;noexcept(IsNoexcept)&gt;</text>
</g>
<!-- Node9 -->
<g id="Node000009" class="node">
<title>Node9</title>
<g id="a_Node000009"><a xlink:href="../../d7/d3c/structmimicpp_1_1signature__remove__ref__qualifier_3_01_return_07_params_8_8_8_00_8_8_8_08_01cond6ac25826e6f55cdd739e9145d0715fc.html" target="_top" xlink:title=" ">
<polygon fill="white" stroke="#666666" points="445.25,-337 286.75,-337 286.75,-284 445.25,-284 445.25,-337"/>
<text text-anchor="start" x="294.75" y="-323.5" font-family="Helvetica,sans-Serif" font-size="10.00">mimicpp::signature</text>
<text text-anchor="start" x="294.75" y="-312.25" font-family="Helvetica,sans-Serif" font-size="10.00">_remove_ref_qualifier</text>
<text text-anchor="start" x="294.75" y="-301" font-family="Helvetica,sans-Serif" font-size="10.00">&lt; Return(Params...,...)</text>
<text text-anchor="middle" x="366" y="-289.75" font-family="Helvetica,sans-Serif" font-size="10.00"> const &amp;&amp;noexcept(IsNoexcept)&gt;</text>
</a>
</g>
</g>
<!-- Node1&#45;&gt;Node9 -->
<g id="edge9_Node000001_Node000009" class="edge">
<title>Node1&#45;&gt;Node9</title>
<g id="a_edge9_Node000001_Node000009"><a xlink:title=" ">
<path fill="none" stroke="orange" stroke-dasharray="5,2" d="M81.89,-387.19C94.27,-375.36 109.85,-362.65 126.25,-354.75 176.38,-330.59 238.29,-319.58 286.5,-314.58"/>
<polygon fill="orange" stroke="orange" points="79.55,-384.58 74.93,-394.11 84.49,-389.54 79.55,-384.58"/>
</a>
</g>
<text text-anchor="start" x="152.12" y="-379" font-family="Helvetica,sans-Serif" font-size="10.00" fill="grey"> &lt; Return(Params...,</text>
<text text-anchor="start" x="152.12" y="-367.75" font-family="Helvetica,sans-Serif" font-size="10.00" fill="grey">...) const &amp;&amp;noexcept</text>
<text text-anchor="middle" x="197.5" y="-356.5" font-family="Helvetica,sans-Serif" font-size="10.00" fill="grey">(IsNoexcept)&gt;</text>
</g>
<!-- Node10 -->
<g id="Node000010" class="node">
<title>Node10</title>
<g id="a_Node000010"><a xlink:href="../../de/d01/structmimicpp_1_1signature__remove__ref__qualifier_3_01_return_07_params_8_8_8_00_8_8_8_08_01con7c46acabb1b608aee41ebe95a1076693.html" target="_top" xlink:title=" ">
<polygon fill="white" stroke="#666666" points="441.88,-266 290.12,-266 290.12,-213 441.88,-213 441.88,-266"/>
<text text-anchor="start" x="298.12" y="-252.5" font-family="Helvetica,sans-Serif" font-size="10.00">mimicpp::signature</text>
<text text-anchor="start" x="298.12" y="-241.25" font-family="Helvetica,sans-Serif" font-size="10.00">_remove_ref_qualifier</text>
<text text-anchor="start" x="298.12" y="-230" font-family="Helvetica,sans-Serif" font-size="10.00">&lt; Return(Params...,...)</text>
<text text-anchor="middle" x="366" y="-218.75" font-family="Helvetica,sans-Serif" font-size="10.00"> const &amp;noexcept(IsNoexcept)&gt;</text>
</a>
</g>
</g>
<!-- Node1&#45;&gt;Node10 -->
<g id="edge10_Node000001_Node000010" class="edge">
<title>Node1&#45;&gt;Node10</title>
<g id="a_edge10_Node000001_Node000010"><a xlink:title=" ">
<path fill="none" stroke="orange" stroke-dasharray="5,2" d="M62.89,-384.31C72.32,-352.51 91.47,-305.06 126.25,-279.75 173.24,-245.56 239.1,-236.55 289.76,-235.51"/>
<polygon fill="orange" stroke="orange" points="59.56,-383.22 60.25,-393.79 66.3,-385.1 59.56,-383.22"/>
</a>
</g>
<text text-anchor="start" x="154.75" y="-304" font-family="Helvetica,sans-Serif" font-size="10.00" fill="grey"> &lt; Return(Params...,</text>
<text text-anchor="start" x="154.75" y="-292.75" font-family="Helvetica,sans-Serif" font-size="10.00" fill="grey">...) const &amp;noexcept</text>
<text text-anchor="middle" x="197.5" y="-281.5" font-family="Helvetica,sans-Serif" font-size="10.00" fill="grey">(IsNoexcept)&gt;</text>
</g>
<!-- Node11 -->
<g id="Node000011" class="node">
<title>Node11</title>
<g id="a_Node000011"><a xlink:href="../../dc/d06/structmimicpp_1_1signature__remove__ref__qualifier_3_01_return_07_params_8_8_8_00_8_8_8_08_01con62e845ff9f17ceb062342ce4f77564ca.html" target="_top" xlink:title=" ">
<polygon fill="white" stroke="#666666" points="438.5,-195 293.5,-195 293.5,-142 438.5,-142 438.5,-195"/>
<text text-anchor="start" x="301.5" y="-181.5" font-family="Helvetica,sans-Serif" font-size="10.00">mimicpp::signature</text>
<text text-anchor="start" x="301.5" y="-170.25" font-family="Helvetica,sans-Serif" font-size="10.00">_remove_ref_qualifier</text>
<text text-anchor="start" x="301.5" y="-159" font-family="Helvetica,sans-Serif" font-size="10.00">&lt; Return(Params...,...)</text>
<text text-anchor="middle" x="366" y="-147.75" font-family="Helvetica,sans-Serif" font-size="10.00"> const noexcept(IsNoexcept)&gt;</text>
</a>
</g>
</g>
<!-- Node1&#45;&gt;Node11 -->
<g id="edge11_Node000001_Node000011" class="edge">
<title>Node1&#45;&gt;Node11</title>
<g id="a_edge11_Node000001_Node000011"><a xlink:title=" ">
<path fill="none" stroke="orange" stroke-dasharray="5,2" d="M55.53,-384.05C58.03,-335.53 70.43,-244.87 126.25,-198.75 172.23,-160.76 241.17,-155.73 293.16,-158.72"/>
<polygon fill="orange" stroke="orange" points="52.04,-383.78 55.14,-393.91 59.03,-384.05 52.04,-383.78"/>
</a>
</g>
<text text-anchor="start" x="154.75" y="-223" font-family="Helvetica,sans-Serif" font-size="10.00" fill="grey"> &lt; Return(Params...,</text>
<text text-anchor="start" x="154.75" y="-211.75" font-family="Helvetica,sans-Serif" font-size="10.00" fill="grey">...) const noexcept</text>
<text text-anchor="middle" x="197.5" y="-200.5" font-family="Helvetica,sans-Serif" font-size="10.00" fill="grey">(IsNoexcept)&gt;</text>
</g>
<!-- Node12 -->
<g id="Node000012" class="node">
<title>Node12</title>
<g id="a_Node000012"><a xlink:href="../../da/dec/structmimicpp_1_1signature__remove__ref__qualifier_3_01_return_07_params_8_8_8_00_8_8_8_08_01noexcept_07_is_noexcept_08_4.html" target="_top" xlink:title=" ">
<polygon fill="white" stroke="#666666" points="425.38,-124 306.62,-124 306.62,-71 425.38,-71 425.38,-124"/>
<text text-anchor="start" x="314.62" y="-110.5" font-family="Helvetica,sans-Serif" font-size="10.00">mimicpp::signature</text>
<text text-anchor="start" x="314.62" y="-99.25" font-family="Helvetica,sans-Serif" font-size="10.00">_remove_ref_qualifier</text>
<text text-anchor="start" x="314.62" y="-88" font-family="Helvetica,sans-Serif" font-size="10.00">&lt; Return(Params...,...)</text>
<text text-anchor="middle" x="366" y="-76.75" font-family="Helvetica,sans-Serif" font-size="10.00"> noexcept(IsNoexcept)&gt;</text>
</a>
</g>
</g>
<!-- Node1&#45;&gt;Node12 -->
<g id="edge12_Node000001_Node000012" class="edge">
<title>Node1&#45;&gt;Node12</title>
<g id="a_edge12_Node000001_Node000012"><a xlink:title=" ">
<path fill="none" stroke="orange" stroke-dasharray="5,2" d="M58.71,-384.14C66.84,-316.94 88.92,-165.72 126.25,-132 174.73,-88.2 252.78,-84.97 306.36,-89.13"/>
<polygon fill="orange" stroke="orange" points="55.27,-383.44 57.57,-393.79 62.22,-384.26 55.27,-383.44"/>
</a>
</g>
<text text-anchor="start" x="141.25" y="-145" font-family="Helvetica,sans-Serif" font-size="10.00" fill="grey"> &lt; Return(Params...,</text>
<text text-anchor="middle" x="197.5" y="-133.75" font-family="Helvetica,sans-Serif" font-size="10.00" fill="grey">...) noexcept(IsNoexcept)&gt;</text>
</g>
<!-- Node13 -->
<g id="Node000013" class="node">
<title>Node13</title>
<g id="a_Node000013"><a xlink:href="../../d9/dd7/structmimicpp_1_1signature__remove__ref__qualifier_3_01_return_07_params_8_8_8_00_8_8_8_08_6noexcept_07_is_noexcept_08_4.html" target="_top" xlink:title=" ">
<polygon fill="white" stroke="#666666" points="427.62,-53 304.38,-53 304.38,0 427.62,0 427.62,-53"/>
<text text-anchor="start" x="312.38" y="-39.5" font-family="Helvetica,sans-Serif" font-size="10.00">mimicpp::signature</text>
<text text-anchor="start" x="312.38" y="-28.25" font-family="Helvetica,sans-Serif" font-size="10.00">_remove_ref_qualifier</text>
<text text-anchor="start" x="312.38" y="-17" font-family="Helvetica,sans-Serif" font-size="10.00">&lt; Return(Params...,...)</text>
<text text-anchor="middle" x="366" y="-5.75" font-family="Helvetica,sans-Serif" font-size="10.00">&amp;noexcept(IsNoexcept)&gt;</text>
</a>
</g>
</g>
<!-- Node1&#45;&gt;Node13 -->
<g id="edge13_Node000001_Node000013" class="edge">
<title>Node1&#45;&gt;Node13</title>
<g id="a_edge13_Node000001_Node000013"><a xlink:title=" ">
<path fill="none" stroke="orange" stroke-dasharray="5,2" d="M56.97,-383.95C62.15,-304.74 79.64,-105.16 126.25,-61 173.14,-16.57 250.21,-13.16 304.06,-17.46"/>
<polygon fill="orange" stroke="orange" points="53.49,-383.45 56.36,-393.65 60.48,-383.89 53.49,-383.45"/>
</a>
</g>
<text text-anchor="start" x="139" y="-74" font-family="Helvetica,sans-Serif" font-size="10.00" fill="grey"> &lt; Return(Params...,</text>
<text text-anchor="middle" x="197.5" y="-62.75" font-family="Helvetica,sans-Serif" font-size="10.00" fill="grey">...)&amp;noexcept(IsNoexcept)&gt;</text>
</g>
</g>
</svg>
