<?xml version="1.0" encoding="UTF-8" standalone="no"?>
<!DOCTYPE svg PUBLIC "-//W3C//DTD SVG 1.1//EN"
 "http://www.w3.org/Graphics/SVG/1.1/DTD/svg11.dtd">
<!-- Generated by graphviz version 12.2.1 (20241206.2353)
 -->
<!-- Title: mimicpp::signature_add_noexcept&lt; Signature &gt; Pages: 1 -->
<svg width="491pt" height="833pt"
 viewBox="0.00 0.00 490.75 832.82" xmlns="http://www.w3.org/2000/svg" xmlns:xlink="http://www.w3.org/1999/xlink">
<g id="graph0" class="graph" transform="scale(1 1) rotate(0) translate(4 828.82)">
<title>mimicpp::signature_add_noexcept&lt; Signature &gt;</title>
<!-- Node1 -->
<g id="Node000001" class="node">
<title>Node1</title>
<g id="a_Node000001"><a xlink:title="Primary template, purposely undefined.">
<polygon fill="#999999" stroke="#666666" points="139,-428.75 0,-428.75 0,-398.25 139,-398.25 139,-428.75"/>
<text text-anchor="start" x="8" y="-415.25" font-family="Helvetica,sans-Serif" font-size="10.00">mimicpp::signature</text>
<text text-anchor="middle" x="69.5" y="-404" font-family="Helvetica,sans-Serif" font-size="10.00">_add_noexcept&lt; Signature &gt;</text>
</a>
</g>
</g>
<!-- Node2 -->
<g id="Node000002" class="node">
<title>Node2</title>
<g id="a_Node000002"><a xlink:href="../../d6/db8/structmimicpp_1_1signature__add__noexcept_3_01_return_07_params_8_8_8_08_01_6_6noexcept_07_is_noexcept_08_4.html" target="_top" xlink:title=" ">
<polygon fill="white" stroke="#666666" points="459.12,-822 341.12,-822 341.12,-769 459.12,-769 459.12,-822"/>
<text text-anchor="start" x="349.12" y="-808.5" font-family="Helvetica,sans-Serif" font-size="10.00">mimicpp::signature</text>
<text text-anchor="start" x="349.12" y="-797.25" font-family="Helvetica,sans-Serif" font-size="10.00">_add_noexcept&lt; Return</text>
<text text-anchor="start" x="349.12" y="-786" font-family="Helvetica,sans-Serif" font-size="10.00">(Params...) &amp;&amp;noexcept</text>
<text text-anchor="middle" x="400.12" y="-774.75" font-family="Helvetica,sans-Serif" font-size="10.00">(IsNoexcept)&gt;</text>
</a>
</g>
</g>
<!-- Node1&#45;&gt;Node2 -->
<g id="edge1_Node000001_Node000002" class="edge">
<title>Node1&#45;&gt;Node2</title>
<g id="a_edge1_Node000001_Node000002"><a xlink:title=" ">
<path fill="none" stroke="orange" stroke-dasharray="5,2" d="M73.56,-440.46C82.4,-513.3 110.32,-711.44 157,-754.5 206.28,-799.96 286.37,-805.04 340.83,-802.2"/>
<polygon fill="orange" stroke="orange" points="77.05,-440.15 72.4,-430.63 70.1,-440.98 77.05,-440.15"/>
</a>
</g>
<text text-anchor="start" x="170.12" y="-815.32" font-family="Helvetica,sans-Serif" font-size="10.00" fill="grey"> &lt; Return(Params...)</text>
<text text-anchor="middle" x="228.25" y="-804.07" font-family="Helvetica,sans-Serif" font-size="10.00" fill="grey"> &amp;&amp;noexcept(IsNoexcept)&gt;</text>
</g>
<!-- Node3 -->
<g id="Node000003" class="node">
<title>Node3</title>
<g id="a_Node000003"><a xlink:href="../../db/d14/structmimicpp_1_1signature__add__noexcept_3_01_return_07_params_8_8_8_08_01_6noexcept_07_is_noexcept_08_4.html" target="_top" xlink:title=" ">
<polygon fill="white" stroke="#666666" points="459.12,-751 341.12,-751 341.12,-698 459.12,-698 459.12,-751"/>
<text text-anchor="start" x="349.12" y="-737.5" font-family="Helvetica,sans-Serif" font-size="10.00">mimicpp::signature</text>
<text text-anchor="start" x="349.12" y="-726.25" font-family="Helvetica,sans-Serif" font-size="10.00">_add_noexcept&lt; Return</text>
<text text-anchor="start" x="349.12" y="-715" font-family="Helvetica,sans-Serif" font-size="10.00">(Params...) &amp;noexcept</text>
<text text-anchor="middle" x="400.12" y="-703.75" font-family="Helvetica,sans-Serif" font-size="10.00">(IsNoexcept)&gt;</text>
</a>
</g>
</g>
<!-- Node1&#45;&gt;Node3 -->
<g id="edge2_Node000001_Node000003" class="edge">
<title>Node1&#45;&gt;Node3</title>
<g id="a_edge2_Node000001_Node000003"><a xlink:title=" ">
<path fill="none" stroke="orange" stroke-dasharray="5,2" d="M70.8,-440.23C72.94,-494.1 85.87,-615.92 157,-678.5 207.36,-722.8 286.82,-730.1 340.87,-729.1"/>
<polygon fill="orange" stroke="orange" points="74.3,-440.34 70.52,-430.45 67.31,-440.54 74.3,-440.34"/>
</a>
</g>
<text text-anchor="start" x="173.5" y="-740.86" font-family="Helvetica,sans-Serif" font-size="10.00" fill="grey"> &lt; Return(Params...)</text>
<text text-anchor="middle" x="228.25" y="-729.61" font-family="Helvetica,sans-Serif" font-size="10.00" fill="grey"> &amp;noexcept(IsNoexcept)&gt;</text>
</g>
<!-- Node4 -->
<g id="Node000004" class="node">
<title>Node4</title>
<g id="a_Node000004"><a xlink:href="../../dd/d89/structmimicpp_1_1signature__add__noexcept_3_01_return_07_params_8_8_8_08_01const_01_6_6noexcept_07_is_noexcept_08_4.html" target="_top" xlink:title=" ">
<polygon fill="white" stroke="#666666" points="471.88,-680 328.38,-680 328.38,-627 471.88,-627 471.88,-680"/>
<text text-anchor="start" x="336.38" y="-666.5" font-family="Helvetica,sans-Serif" font-size="10.00">mimicpp::signature</text>
<text text-anchor="start" x="336.38" y="-655.25" font-family="Helvetica,sans-Serif" font-size="10.00">_add_noexcept&lt; Return</text>
<text text-anchor="start" x="336.38" y="-644" font-family="Helvetica,sans-Serif" font-size="10.00">(Params...) const &amp;&amp;noexcept</text>
<text text-anchor="middle" x="400.12" y="-632.75" font-family="Helvetica,sans-Serif" font-size="10.00">(IsNoexcept)&gt;</text>
</a>
</g>
</g>
<!-- Node1&#45;&gt;Node4 -->
<g id="edge3_Node000001_Node000004" class="edge">
<title>Node1&#45;&gt;Node4</title>
<g id="a_edge3_Node000001_Node000004"><a xlink:title=" ">
<path fill="none" stroke="orange" stroke-dasharray="5,2" d="M75.14,-440.45C83.69,-481.57 105.96,-559.52 157,-600.5 205.23,-639.23 275.64,-651.17 328.11,-654.2"/>
<polygon fill="orange" stroke="orange" points="78.58,-439.82 73.24,-430.67 71.71,-441.15 78.58,-439.82"/>
</a>
</g>
<text text-anchor="start" x="157" y="-664.58" font-family="Helvetica,sans-Serif" font-size="10.00" fill="grey"> &lt; Return(Params...)</text>
<text text-anchor="middle" x="228.25" y="-653.33" font-family="Helvetica,sans-Serif" font-size="10.00" fill="grey"> const &amp;&amp;noexcept(IsNoexcept)&gt;</text>
</g>
<!-- Node5 -->
<g id="Node000005" class="node">
<title>Node5</title>
<g id="a_Node000005"><a xlink:href="../../da/d0a/structmimicpp_1_1signature__add__noexcept_3_01_return_07_params_8_8_8_08_01const_01_6noexcept_07_is_noexcept_08_4.html" target="_top" xlink:title=" ">
<polygon fill="white" stroke="#666666" points="468.5,-609 331.75,-609 331.75,-556 468.5,-556 468.5,-609"/>
<text text-anchor="start" x="339.75" y="-595.5" font-family="Helvetica,sans-Serif" font-size="10.00">mimicpp::signature</text>
<text text-anchor="start" x="339.75" y="-584.25" font-family="Helvetica,sans-Serif" font-size="10.00">_add_noexcept&lt; Return</text>
<text text-anchor="start" x="339.75" y="-573" font-family="Helvetica,sans-Serif" font-size="10.00">(Params...) const &amp;noexcept</text>
<text text-anchor="middle" x="400.12" y="-561.75" font-family="Helvetica,sans-Serif" font-size="10.00">(IsNoexcept)&gt;</text>
</a>
</g>
</g>
<!-- Node1&#45;&gt;Node5 -->
<g id="edge4_Node000001_Node000005" class="edge">
<title>Node1&#45;&gt;Node5</title>
<g id="a_edge4_Node000001_Node000005"><a xlink:title=" ">
<path fill="none" stroke="orange" stroke-dasharray="5,2" d="M83.16,-438.96C97.46,-465.04 123.23,-504.74 157,-526.5 209.5,-560.33 280.04,-573.8 331.43,-579.13"/>
<polygon fill="orange" stroke="orange" points="86.38,-437.58 78.61,-430.38 80.2,-440.85 86.38,-437.58"/>
</a>
</g>
<text text-anchor="start" x="160.38" y="-587.25" font-family="Helvetica,sans-Serif" font-size="10.00" fill="grey"> &lt; Return(Params...)</text>
<text text-anchor="middle" x="228.25" y="-576" font-family="Helvetica,sans-Serif" font-size="10.00" fill="grey"> const &amp;noexcept(IsNoexcept)&gt;</text>
</g>
<!-- Node6 -->
<g id="Node000006" class="node">
<title>Node6</title>
<g id="a_Node000006"><a xlink:href="../../d6/dad/structmimicpp_1_1signature__add__noexcept_3_01_return_07_params_8_8_8_08_01const_01noexcept_07_is_noexcept_08_4.html" target="_top" xlink:title=" ">
<polygon fill="white" stroke="#666666" points="465.12,-538 335.12,-538 335.12,-485 465.12,-485 465.12,-538"/>
<text text-anchor="start" x="343.12" y="-524.5" font-family="Helvetica,sans-Serif" font-size="10.00">mimicpp::signature</text>
<text text-anchor="start" x="343.12" y="-513.25" font-family="Helvetica,sans-Serif" font-size="10.00">_add_noexcept&lt; Return</text>
<text text-anchor="start" x="343.12" y="-502" font-family="Helvetica,sans-Serif" font-size="10.00">(Params...) const noexcept</text>
<text text-anchor="middle" x="400.12" y="-490.75" font-family="Helvetica,sans-Serif" font-size="10.00">(IsNoexcept)&gt;</text>
</a>
</g>
</g>
<!-- Node1&#45;&gt;Node6 -->
<g id="edge5_Node000001_Node000006" class="edge">
<title>Node1&#45;&gt;Node6</title>
<g id="a_edge5_Node000001_Node000006"><a xlink:title=" ">
<path fill="none" stroke="orange" stroke-dasharray="5,2" d="M101.54,-435.3C117.46,-445.56 137.56,-457.13 157,-464.5 215.06,-486.5 285.03,-498.66 334.79,-505.06"/>
<polygon fill="orange" stroke="orange" points="103.74,-432.56 93.47,-429.97 99.88,-438.4 103.74,-432.56"/>
</a>
</g>
<text text-anchor="start" x="163.75" y="-512.87" font-family="Helvetica,sans-Serif" font-size="10.00" fill="grey"> &lt; Return(Params...)</text>
<text text-anchor="middle" x="228.25" y="-501.62" font-family="Helvetica,sans-Serif" font-size="10.00" fill="grey"> const noexcept(IsNoexcept)&gt;</text>
</g>
<!-- Node7 -->
<g id="Node000007" class="node">
<title>Node7</title>
<g id="a_Node000007"><a xlink:href="../../d2/d69/structmimicpp_1_1signature__add__noexcept_3_01_return_07_params_8_8_8_08_01noexcept_07_is_noexcept_08_4.html" target="_top" xlink:title=" ">
<polygon fill="white" stroke="#666666" points="482.75,-467.38 317.5,-467.38 317.5,-425.62 482.75,-425.62 482.75,-467.38"/>
<text text-anchor="start" x="325.5" y="-453.88" font-family="Helvetica,sans-Serif" font-size="10.00">mimicpp::signature</text>
<text text-anchor="start" x="325.5" y="-442.62" font-family="Helvetica,sans-Serif" font-size="10.00">_add_noexcept&lt; Return</text>
<text text-anchor="middle" x="400.12" y="-431.38" font-family="Helvetica,sans-Serif" font-size="10.00">(Params...) noexcept(IsNoexcept)&gt;</text>
</a>
</g>
</g>
<!-- Node1&#45;&gt;Node7 -->
<g id="edge6_Node000001_Node000007" class="edge">
<title>Node1&#45;&gt;Node7</title>
<g id="a_edge6_Node000001_Node000007"><a xlink:title=" ">
<path fill="none" stroke="orange" stroke-dasharray="5,2" d="M150.76,-423.81C152.86,-424.04 154.94,-424.28 157,-424.5 210.29,-430.31 270.3,-435.77 317.24,-439.8"/>
<polygon fill="orange" stroke="orange" points="151.25,-420.34 140.91,-422.66 150.44,-427.29 151.25,-420.34"/>
</a>
</g>
<text text-anchor="start" x="176.88" y="-450.84" font-family="Helvetica,sans-Serif" font-size="10.00" fill="grey"> &lt; Return(Params...)</text>
<text text-anchor="middle" x="228.25" y="-439.59" font-family="Helvetica,sans-Serif" font-size="10.00" fill="grey"> noexcept(IsNoexcept)&gt;</text>
</g>
<!-- Node8 -->
<g id="Node000008" class="node">
<title>Node8</title>
<g id="a_Node000008"><a xlink:href="../../de/d0c/structmimicpp_1_1signature__add__noexcept_3_01_return_07_params_8_8_8_00_8_8_8_08_01_6_6noexcept_07_is_noexcept_08_4.html" target="_top" xlink:title=" ">
<polygon fill="white" stroke="#666666" points="463.62,-408 336.62,-408 336.62,-355 463.62,-355 463.62,-408"/>
<text text-anchor="start" x="344.62" y="-394.5" font-family="Helvetica,sans-Serif" font-size="10.00">mimicpp::signature</text>
<text text-anchor="start" x="344.62" y="-383.25" font-family="Helvetica,sans-Serif" font-size="10.00">_add_noexcept&lt; Return</text>
<text text-anchor="start" x="344.62" y="-372" font-family="Helvetica,sans-Serif" font-size="10.00">(Params...,...) &amp;&amp;noexcept</text>
<text text-anchor="middle" x="400.12" y="-360.75" font-family="Helvetica,sans-Serif" font-size="10.00">(IsNoexcept)&gt;</text>
</a>
</g>
</g>
<!-- Node1&#45;&gt;Node8 -->
<g id="edge7_Node000001_Node000008" class="edge">
<title>Node1&#45;&gt;Node8</title>
<g id="a_edge7_Node000001_Node000008"><a xlink:title=" ">
<path fill="none" stroke="orange" stroke-dasharray="5,2" d="M150.76,-402.7C152.86,-402.46 154.94,-402.22 157,-402 217.81,-395.39 287.41,-389.69 336.34,-385.99"/>
<polygon fill="orange" stroke="orange" points="150.42,-399.21 140.9,-403.86 151.24,-406.16 150.42,-399.21"/>
</a>
</g>
<text text-anchor="start" x="165.25" y="-415" font-family="Helvetica,sans-Serif" font-size="10.00" fill="grey"> &lt; Return(Params...,</text>
<text text-anchor="middle" x="228.25" y="-403.75" font-family="Helvetica,sans-Serif" font-size="10.00" fill="grey">...) &amp;&amp;noexcept(IsNoexcept)&gt;</text>
</g>
<!-- Node9 -->
<g id="Node000009" class="node">
<title>Node9</title>
<g id="a_Node000009"><a xlink:href="../../db/d77/structmimicpp_1_1signature__add__noexcept_3_01_return_07_params_8_8_8_00_8_8_8_08_01_6noexcept_07_is_noexcept_08_4.html" target="_top" xlink:title=" ">
<polygon fill="white" stroke="#666666" points="460.25,-337 340,-337 340,-284 460.25,-284 460.25,-337"/>
<text text-anchor="start" x="348" y="-323.5" font-family="Helvetica,sans-Serif" font-size="10.00">mimicpp::signature</text>
<text text-anchor="start" x="348" y="-312.25" font-family="Helvetica,sans-Serif" font-size="10.00">_add_noexcept&lt; Return</text>
<text text-anchor="start" x="348" y="-301" font-family="Helvetica,sans-Serif" font-size="10.00">(Params...,...) &amp;noexcept</text>
<text text-anchor="middle" x="400.12" y="-289.75" font-family="Helvetica,sans-Serif" font-size="10.00">(IsNoexcept)&gt;</text>
</a>
</g>
</g>
<!-- Node1&#45;&gt;Node9 -->
<g id="edge8_Node000001_Node000009" class="edge">
<title>Node1&#45;&gt;Node9</title>
<g id="a_edge8_Node000001_Node000009"><a xlink:title=" ">
<path fill="none" stroke="orange" stroke-dasharray="5,2" d="M101.97,-391.89C117.86,-381.83 137.81,-370.47 157,-363 217.03,-339.65 289.68,-325.65 339.64,-318.06"/>
<polygon fill="orange" stroke="orange" points="100.39,-388.74 93.91,-397.11 104.2,-394.61 100.39,-388.74"/>
</a>
</g>
<text text-anchor="start" x="168.62" y="-376" font-family="Helvetica,sans-Serif" font-size="10.00" fill="grey"> &lt; Return(Params...,</text>
<text text-anchor="middle" x="228.25" y="-364.75" font-family="Helvetica,sans-Serif" font-size="10.00" fill="grey">...) &amp;noexcept(IsNoexcept)&gt;</text>
</g>
<!-- Node10 -->
<g id="Node000010" class="node">
<title>Node10</title>
<g id="a_Node000010"><a xlink:href="../../db/d36/structmimicpp_1_1signature__add__noexcept_3_01_return_07_params_8_8_8_00_8_8_8_08_01const_01_6_6noexcept_07_is_noexcept_08_4.html" target="_top" xlink:title=" ">
<polygon fill="white" stroke="#666666" points="466.25,-266 334,-266 334,-213 466.25,-213 466.25,-266"/>
<text text-anchor="start" x="342" y="-252.5" font-family="Helvetica,sans-Serif" font-size="10.00">mimicpp::signature</text>
<text text-anchor="start" x="342" y="-241.25" font-family="Helvetica,sans-Serif" font-size="10.00">_add_noexcept&lt; Return</text>
<text text-anchor="start" x="342" y="-230" font-family="Helvetica,sans-Serif" font-size="10.00">(Params...,...) const</text>
<text text-anchor="middle" x="400.12" y="-218.75" font-family="Helvetica,sans-Serif" font-size="10.00"> &amp;&amp;noexcept(IsNoexcept)&gt;</text>
</a>
</g>
</g>
<!-- Node1&#45;&gt;Node10 -->
<g id="edge9_Node000001_Node000010" class="edge">
<title>Node1&#45;&gt;Node10</title>
<g id="a_edge9_Node000001_Node000010"><a xlink:title=" ">
<path fill="none" stroke="orange" stroke-dasharray="5,2" d="M80.77,-387.84C93.9,-358.53 119.51,-311.44 157,-286.75 209.67,-252.07 281.86,-241.65 333.68,-239.06"/>
<polygon fill="orange" stroke="orange" points="77.69,-386.16 76.95,-396.73 84.12,-388.93 77.69,-386.16"/>
</a>
</g>
<text text-anchor="start" x="182.88" y="-311" font-family="Helvetica,sans-Serif" font-size="10.00" fill="grey"> &lt; Return(Params...,</text>
<text text-anchor="start" x="182.88" y="-299.75" font-family="Helvetica,sans-Serif" font-size="10.00" fill="grey">...) const &amp;&amp;noexcept</text>
<text text-anchor="middle" x="228.25" y="-288.5" font-family="Helvetica,sans-Serif" font-size="10.00" fill="grey">(IsNoexcept)&gt;</text>
</g>
<!-- Node11 -->
<g id="Node000011" class="node">
<title>Node11</title>
<g id="a_Node000011"><a xlink:href="../../d9/d43/structmimicpp_1_1signature__add__noexcept_3_01_return_07_params_8_8_8_00_8_8_8_08_01const_01_6noexcept_07_is_noexcept_08_4.html" target="_top" xlink:title=" ">
<polygon fill="white" stroke="#666666" points="462.88,-195 337.38,-195 337.38,-142 462.88,-142 462.88,-195"/>
<text text-anchor="start" x="345.38" y="-181.5" font-family="Helvetica,sans-Serif" font-size="10.00">mimicpp::signature</text>
<text text-anchor="start" x="345.38" y="-170.25" font-family="Helvetica,sans-Serif" font-size="10.00">_add_noexcept&lt; Return</text>
<text text-anchor="start" x="345.38" y="-159" font-family="Helvetica,sans-Serif" font-size="10.00">(Params...,...) const</text>
<text text-anchor="middle" x="400.12" y="-147.75" font-family="Helvetica,sans-Serif" font-size="10.00"> &amp;noexcept(IsNoexcept)&gt;</text>
</a>
</g>
</g>
<!-- Node1&#45;&gt;Node11 -->
<g id="edge10_Node000001_Node000011" class="edge">
<title>Node1&#45;&gt;Node11</title>
<g id="a_edge10_Node000001_Node000011"><a xlink:title=" ">
<path fill="none" stroke="orange" stroke-dasharray="5,2" d="M73.29,-386.59C79.52,-341.24 98.95,-250.11 157,-204.75 207.91,-164.97 283.72,-159.65 336.92,-161.89"/>
<polygon fill="orange" stroke="orange" points="69.84,-385.98 72.07,-396.34 76.78,-386.85 69.84,-385.98"/>
</a>
</g>
<text text-anchor="start" x="185.5" y="-229" font-family="Helvetica,sans-Serif" font-size="10.00" fill="grey"> &lt; Return(Params...,</text>
<text text-anchor="start" x="185.5" y="-217.75" font-family="Helvetica,sans-Serif" font-size="10.00" fill="grey">...) const &amp;noexcept</text>
<text text-anchor="middle" x="228.25" y="-206.5" font-family="Helvetica,sans-Serif" font-size="10.00" fill="grey">(IsNoexcept)&gt;</text>
</g>
<!-- Node12 -->
<g id="Node000012" class="node">
<title>Node12</title>
<g id="a_Node000012"><a xlink:href="../../d9/dd9/structmimicpp_1_1signature__add__noexcept_3_01_return_07_params_8_8_8_00_8_8_8_08_01const_01noexcept_07_is_noexcept_08_4.html" target="_top" xlink:title=" ">
<polygon fill="white" stroke="#666666" points="459.5,-124 340.75,-124 340.75,-71 459.5,-71 459.5,-124"/>
<text text-anchor="start" x="348.75" y="-110.5" font-family="Helvetica,sans-Serif" font-size="10.00">mimicpp::signature</text>
<text text-anchor="start" x="348.75" y="-99.25" font-family="Helvetica,sans-Serif" font-size="10.00">_add_noexcept&lt; Return</text>
<text text-anchor="start" x="348.75" y="-88" font-family="Helvetica,sans-Serif" font-size="10.00">(Params...,...) const</text>
<text text-anchor="middle" x="400.12" y="-76.75" font-family="Helvetica,sans-Serif" font-size="10.00"> noexcept(IsNoexcept)&gt;</text>
</a>
</g>
</g>
<!-- Node1&#45;&gt;Node12 -->
<g id="edge11_Node000001_Node000012" class="edge">
<title>Node1&#45;&gt;Node12</title>
<g id="a_edge11_Node000001_Node000012"><a xlink:title=" ">
<path fill="none" stroke="orange" stroke-dasharray="5,2" d="M74.69,-386.6C85.4,-321.44 115.88,-157.99 157,-123.75 207.69,-81.54 286.51,-81.03 340.36,-87.07"/>
<polygon fill="orange" stroke="orange" points="71.24,-385.99 73.1,-396.42 78.15,-387.1 71.24,-385.99"/>
</a>
</g>
<text text-anchor="start" x="185.5" y="-148" font-family="Helvetica,sans-Serif" font-size="10.00" fill="grey"> &lt; Return(Params...,</text>
<text text-anchor="start" x="185.5" y="-136.75" font-family="Helvetica,sans-Serif" font-size="10.00" fill="grey">...) const noexcept</text>
<text text-anchor="middle" x="228.25" y="-125.5" font-family="Helvetica,sans-Serif" font-size="10.00" fill="grey">(IsNoexcept)&gt;</text>
</g>
<!-- Node13 -->
<g id="Node000013" class="node">
<title>Node13</title>
<g id="a_Node000013"><a xlink:href="../../db/d08/structmimicpp_1_1signature__add__noexcept_3_01_return_07_params_8_8_8_00_8_8_8_08_01noexcept_07_is_noexcept_08_4.html" target="_top" xlink:title=" ">
<polygon fill="white" stroke="#666666" points="459.12,-53 341.12,-53 341.12,0 459.12,0 459.12,-53"/>
<text text-anchor="start" x="349.12" y="-39.5" font-family="Helvetica,sans-Serif" font-size="10.00">mimicpp::signature</text>
<text text-anchor="start" x="349.12" y="-28.25" font-family="Helvetica,sans-Serif" font-size="10.00">_add_noexcept&lt; Return</text>
<text text-anchor="start" x="349.12" y="-17" font-family="Helvetica,sans-Serif" font-size="10.00">(Params...,...) noexcept</text>
<text text-anchor="middle" x="400.12" y="-5.75" font-family="Helvetica,sans-Serif" font-size="10.00">(IsNoexcept)&gt;</text>
</a>
</g>
</g>
<!-- Node1&#45;&gt;Node13 -->
<g id="edge12_Node000001_Node000013" class="edge">
<title>Node1&#45;&gt;Node13</title>
<g id="a_edge12_Node000001_Node000013"><a xlink:title=" ">
<path fill="none" stroke="orange" stroke-dasharray="5,2" d="M73.14,-386.8C81.11,-311.91 107.49,-102.38 157,-58 206.56,-13.58 286.4,-11.8 340.74,-17.06"/>
<polygon fill="orange" stroke="orange" points="69.68,-386.2 72.13,-396.5 76.65,-386.92 69.68,-386.2"/>
</a>
</g>
<text text-anchor="start" x="172" y="-71" font-family="Helvetica,sans-Serif" font-size="10.00" fill="grey"> &lt; Return(Params...,</text>
<text text-anchor="middle" x="228.25" y="-59.75" font-family="Helvetica,sans-Serif" font-size="10.00" fill="grey">...) noexcept(IsNoexcept)&gt;</text>
</g>
</g>
</svg>
