<?xml version="1.0" encoding="UTF-8" standalone="no"?>
<!DOCTYPE svg PUBLIC "-//W3C//DTD SVG 1.1//EN"
 "http://www.w3.org/Graphics/SVG/1.1/DTD/svg11.dtd">
<!-- Generated by graphviz version 12.2.1 (20241206.2353)
 -->
<!-- Title: mimicpp::signature_add_noexcept&lt; Signature &gt; Pages: 1 -->
<svg width="495pt" height="822pt"
 viewBox="0.00 0.00 495.25 821.94" xmlns="http://www.w3.org/2000/svg" xmlns:xlink="http://www.w3.org/1999/xlink">
<g id="graph0" class="graph" transform="scale(1 1) rotate(0) translate(4 817.94)">
<title>mimicpp::signature_add_noexcept&lt; Signature &gt;</title>
<!-- Node1 -->
<g id="Node000001" class="node">
<title>Node1</title>
<g id="a_Node000001"><a xlink:title="Primary template, purposely undefined.">
<polygon fill="#999999" stroke="#666666" points="139,-428.75 0,-428.75 0,-398.25 139,-398.25 139,-428.75"/>
<text text-anchor="start" x="8" y="-415.25" font-family="Helvetica,sans-Serif" font-size="10.00">mimicpp::signature</text>
<text text-anchor="middle" x="69.5" y="-404" font-family="Helvetica,sans-Serif" font-size="10.00">_add_noexcept&lt; Signature &gt;</text>
</a>
</g>
</g>
<!-- Node2 -->
<g id="Node000002" class="node">
<title>Node2</title>
<g id="a_Node000002"><a xlink:href="../../d6/db8/structmimicpp_1_1signature__add__noexcept_3_01_return_07_params_8_8_8_08_01_6_6noexcept_07_is_noexcept_08_4.html" target="_top" xlink:title=" ">
<polygon fill="white" stroke="#666666" points="461.38,-811 343.38,-811 343.38,-758 461.38,-758 461.38,-811"/>
<text text-anchor="start" x="351.38" y="-797.5" font-family="Helvetica,sans-Serif" font-size="10.00">mimicpp::signature</text>
<text text-anchor="start" x="351.38" y="-786.25" font-family="Helvetica,sans-Serif" font-size="10.00">_add_noexcept&lt; Return</text>
<text text-anchor="start" x="351.38" y="-775" font-family="Helvetica,sans-Serif" font-size="10.00">(Params...) &amp;&amp;noexcept</text>
<text text-anchor="middle" x="402.38" y="-763.75" font-family="Helvetica,sans-Serif" font-size="10.00">(IsNoexcept)&gt;</text>
</a>
</g>
</g>
<!-- Node1&#45;&gt;Node2 -->
<g id="edge1_Node000001_Node000002" class="edge">
<title>Node1&#45;&gt;Node2</title>
<g id="a_edge1_Node000001_Node000002"><a xlink:title=" ">
<path fill="none" stroke="orange" stroke-dasharray="5,2" d="M73.75,-440.09C82.98,-511 111.64,-702.05 157,-743.5 207.02,-789.2 287.99,-794.19 342.9,-791.26"/>
<polygon fill="orange" stroke="orange" points="77.27,-440.02 72.54,-430.54 70.33,-440.9 77.27,-440.02"/>
</a>
</g>
<text text-anchor="start" x="170.12" y="-804.44" font-family="Helvetica,sans-Serif" font-size="10.00" fill="grey"> &lt; Return(Params...)</text>
<text text-anchor="middle" x="228.25" y="-793.19" font-family="Helvetica,sans-Serif" font-size="10.00" fill="grey"> &amp;&amp;noexcept(IsNoexcept)&gt;</text>
</g>
<!-- Node3 -->
<g id="Node000003" class="node">
<title>Node3</title>
<g id="a_Node000003"><a xlink:href="../../dd/d89/structmimicpp_1_1signature__add__noexcept_3_01_return_07_params_8_8_8_08_01const_01_6_6noexcept_07_is_noexcept_08_4.html" target="_top" xlink:title=" ">
<polygon fill="white" stroke="#666666" points="474.12,-740 330.62,-740 330.62,-687 474.12,-687 474.12,-740"/>
<text text-anchor="start" x="338.62" y="-726.5" font-family="Helvetica,sans-Serif" font-size="10.00">mimicpp::signature</text>
<text text-anchor="start" x="338.62" y="-715.25" font-family="Helvetica,sans-Serif" font-size="10.00">_add_noexcept&lt; Return</text>
<text text-anchor="start" x="338.62" y="-704" font-family="Helvetica,sans-Serif" font-size="10.00">(Params...) const &amp;&amp;noexcept</text>
<text text-anchor="middle" x="402.38" y="-692.75" font-family="Helvetica,sans-Serif" font-size="10.00">(IsNoexcept)&gt;</text>
</a>
</g>
</g>
<!-- Node1&#45;&gt;Node3 -->
<g id="edge2_Node000001_Node000003" class="edge">
<title>Node1&#45;&gt;Node3</title>
<g id="a_edge2_Node000001_Node000003"><a xlink:title=" ">
<path fill="none" stroke="orange" stroke-dasharray="5,2" d="M71.17,-440.35C74.03,-492.83 88.25,-609.06 157,-668.5 204.4,-709.48 276.68,-718.45 330.35,-718.53"/>
<polygon fill="orange" stroke="orange" points="74.68,-440.37 70.75,-430.53 67.68,-440.68 74.68,-440.37"/>
</a>
</g>
<text text-anchor="start" x="157" y="-730.37" font-family="Helvetica,sans-Serif" font-size="10.00" fill="grey"> &lt; Return(Params...)</text>
<text text-anchor="middle" x="228.25" y="-719.12" font-family="Helvetica,sans-Serif" font-size="10.00" fill="grey"> const &amp;&amp;noexcept(IsNoexcept)&gt;</text>
</g>
<!-- Node4 -->
<g id="Node000004" class="node">
<title>Node4</title>
<g id="a_Node000004"><a xlink:href="../../da/d0a/structmimicpp_1_1signature__add__noexcept_3_01_return_07_params_8_8_8_08_01const_01_6noexcept_07_is_noexcept_08_4.html" target="_top" xlink:title=" ">
<polygon fill="white" stroke="#666666" points="470.75,-669 334,-669 334,-616 470.75,-616 470.75,-669"/>
<text text-anchor="start" x="342" y="-655.5" font-family="Helvetica,sans-Serif" font-size="10.00">mimicpp::signature</text>
<text text-anchor="start" x="342" y="-644.25" font-family="Helvetica,sans-Serif" font-size="10.00">_add_noexcept&lt; Return</text>
<text text-anchor="start" x="342" y="-633" font-family="Helvetica,sans-Serif" font-size="10.00">(Params...) const &amp;noexcept</text>
<text text-anchor="middle" x="402.38" y="-621.75" font-family="Helvetica,sans-Serif" font-size="10.00">(IsNoexcept)&gt;</text>
</a>
</g>
</g>
<!-- Node1&#45;&gt;Node4 -->
<g id="edge3_Node000001_Node000004" class="edge">
<title>Node1&#45;&gt;Node4</title>
<g id="a_edge3_Node000001_Node000004"><a xlink:title=" ">
<path fill="none" stroke="orange" stroke-dasharray="5,2" d="M75.56,-440.42C84.54,-480.39 107.25,-554.86 157,-593.5 207.24,-632.52 280.36,-642.88 333.52,-644.64"/>
<polygon fill="orange" stroke="orange" points="78.99,-439.74 73.5,-430.68 72.14,-441.19 78.99,-439.74"/>
</a>
</g>
<text text-anchor="start" x="160.38" y="-654.74" font-family="Helvetica,sans-Serif" font-size="10.00" fill="grey"> &lt; Return(Params...)</text>
<text text-anchor="middle" x="228.25" y="-643.49" font-family="Helvetica,sans-Serif" font-size="10.00" fill="grey"> const &amp;noexcept(IsNoexcept)&gt;</text>
</g>
<!-- Node5 -->
<g id="Node000005" class="node">
<title>Node5</title>
<g id="a_Node000005"><a xlink:href="../../d6/dad/structmimicpp_1_1signature__add__noexcept_3_01_return_07_params_8_8_8_08_01const_01noexcept_07_is_noexcept_08_4.html" target="_top" xlink:title=" ">
<polygon fill="white" stroke="#666666" points="467.38,-598 337.38,-598 337.38,-545 467.38,-545 467.38,-598"/>
<text text-anchor="start" x="345.38" y="-584.5" font-family="Helvetica,sans-Serif" font-size="10.00">mimicpp::signature</text>
<text text-anchor="start" x="345.38" y="-573.25" font-family="Helvetica,sans-Serif" font-size="10.00">_add_noexcept&lt; Return</text>
<text text-anchor="start" x="345.38" y="-562" font-family="Helvetica,sans-Serif" font-size="10.00">(Params...) const noexcept</text>
<text text-anchor="middle" x="402.38" y="-550.75" font-family="Helvetica,sans-Serif" font-size="10.00">(IsNoexcept)&gt;</text>
</a>
</g>
</g>
<!-- Node1&#45;&gt;Node5 -->
<g id="edge4_Node000001_Node000005" class="edge">
<title>Node1&#45;&gt;Node5</title>
<g id="a_edge4_Node000001_Node000005"><a xlink:title=" ">
<path fill="none" stroke="orange" stroke-dasharray="5,2" d="M83.61,-439.27C98.03,-464.84 123.64,-503.08 157,-523.5 211.67,-556.96 284.98,-567.76 337,-570.93"/>
<polygon fill="orange" stroke="orange" points="86.7,-437.62 78.85,-430.5 80.55,-440.96 86.7,-437.62"/>
</a>
</g>
<text text-anchor="start" x="163.75" y="-580.12" font-family="Helvetica,sans-Serif" font-size="10.00" fill="grey"> &lt; Return(Params...)</text>
<text text-anchor="middle" x="228.25" y="-568.87" font-family="Helvetica,sans-Serif" font-size="10.00" fill="grey"> const noexcept(IsNoexcept)&gt;</text>
</g>
<!-- Node6 -->
<g id="Node000006" class="node">
<title>Node6</title>
<g id="a_Node000006"><a xlink:href="../../d2/d69/structmimicpp_1_1signature__add__noexcept_3_01_return_07_params_8_8_8_08_01noexcept_07_is_noexcept_08_4.html" target="_top" xlink:title=" ">
<polygon fill="white" stroke="#666666" points="485,-527.38 319.75,-527.38 319.75,-485.62 485,-485.62 485,-527.38"/>
<text text-anchor="start" x="327.75" y="-513.88" font-family="Helvetica,sans-Serif" font-size="10.00">mimicpp::signature</text>
<text text-anchor="start" x="327.75" y="-502.62" font-family="Helvetica,sans-Serif" font-size="10.00">_add_noexcept&lt; Return</text>
<text text-anchor="middle" x="402.38" y="-491.38" font-family="Helvetica,sans-Serif" font-size="10.00">(Params...) noexcept(IsNoexcept)&gt;</text>
</a>
</g>
</g>
<!-- Node1&#45;&gt;Node6 -->
<g id="edge5_Node000001_Node000006" class="edge">
<title>Node1&#45;&gt;Node6</title>
<g id="a_edge5_Node000001_Node000006"><a xlink:title=" ">
<path fill="none" stroke="orange" stroke-dasharray="5,2" d="M101.14,-435.27C117.1,-445.63 137.35,-457.29 157,-464.5 209.24,-483.66 271.02,-494.17 319.39,-499.9"/>
<polygon fill="orange" stroke="orange" points="103.32,-432.52 93.06,-429.88 99.44,-438.34 103.32,-432.52"/>
</a>
</g>
<text text-anchor="start" x="176.88" y="-509.58" font-family="Helvetica,sans-Serif" font-size="10.00" fill="grey"> &lt; Return(Params...)</text>
<text text-anchor="middle" x="228.25" y="-498.33" font-family="Helvetica,sans-Serif" font-size="10.00" fill="grey"> noexcept(IsNoexcept)&gt;</text>
</g>
<!-- Node7 -->
<g id="Node000007" class="node">
<title>Node7</title>
<g id="a_Node000007"><a xlink:href="../../de/d51/structmimicpp_1_1signature__add__noexcept_3_01_return_07_params_8_8_8_08_6noexcept_07_is_noexcept_08_4.html" target="_top" xlink:title=" ">
<polygon fill="white" stroke="#666666" points="487.25,-467.38 317.5,-467.38 317.5,-425.62 487.25,-425.62 487.25,-467.38"/>
<text text-anchor="start" x="325.5" y="-453.88" font-family="Helvetica,sans-Serif" font-size="10.00">mimicpp::signature</text>
<text text-anchor="start" x="325.5" y="-442.62" font-family="Helvetica,sans-Serif" font-size="10.00">_add_noexcept&lt; Return</text>
<text text-anchor="middle" x="402.38" y="-431.38" font-family="Helvetica,sans-Serif" font-size="10.00">(Params...)&amp;noexcept(IsNoexcept)&gt;</text>
</a>
</g>
</g>
<!-- Node1&#45;&gt;Node7 -->
<g id="edge6_Node000001_Node000007" class="edge">
<title>Node1&#45;&gt;Node7</title>
<g id="a_edge6_Node000001_Node000007"><a xlink:title=" ">
<path fill="none" stroke="orange" stroke-dasharray="5,2" d="M150.76,-423.81C152.86,-424.05 154.94,-424.28 157,-424.5 210.15,-430.27 269.92,-435.67 317.04,-439.68"/>
<polygon fill="orange" stroke="orange" points="151.25,-420.34 140.91,-422.67 150.44,-427.3 151.25,-420.34"/>
</a>
</g>
<text text-anchor="start" x="174.62" y="-450.87" font-family="Helvetica,sans-Serif" font-size="10.00" fill="grey"> &lt; Return(Params...)</text>
<text text-anchor="middle" x="228.25" y="-439.62" font-family="Helvetica,sans-Serif" font-size="10.00" fill="grey">&amp;noexcept(IsNoexcept)&gt;</text>
</g>
<!-- Node8 -->
<g id="Node000008" class="node">
<title>Node8</title>
<g id="a_Node000008"><a xlink:href="../../de/d0c/structmimicpp_1_1signature__add__noexcept_3_01_return_07_params_8_8_8_00_8_8_8_08_01_6_6noexcept_07_is_noexcept_08_4.html" target="_top" xlink:title=" ">
<polygon fill="white" stroke="#666666" points="465.88,-408 338.88,-408 338.88,-355 465.88,-355 465.88,-408"/>
<text text-anchor="start" x="346.88" y="-394.5" font-family="Helvetica,sans-Serif" font-size="10.00">mimicpp::signature</text>
<text text-anchor="start" x="346.88" y="-383.25" font-family="Helvetica,sans-Serif" font-size="10.00">_add_noexcept&lt; Return</text>
<text text-anchor="start" x="346.88" y="-372" font-family="Helvetica,sans-Serif" font-size="10.00">(Params...,...) &amp;&amp;noexcept</text>
<text text-anchor="middle" x="402.38" y="-360.75" font-family="Helvetica,sans-Serif" font-size="10.00">(IsNoexcept)&gt;</text>
</a>
</g>
</g>
<!-- Node1&#45;&gt;Node8 -->
<g id="edge7_Node000001_Node000008" class="edge">
<title>Node1&#45;&gt;Node8</title>
<g id="a_edge7_Node000001_Node000008"><a xlink:title=" ">
<path fill="none" stroke="orange" stroke-dasharray="5,2" d="M150.76,-402.69C152.86,-402.45 154.94,-402.22 157,-402 218.59,-395.33 289.11,-389.62 338.51,-385.93"/>
<polygon fill="orange" stroke="orange" points="150.42,-399.21 140.9,-403.86 151.24,-406.16 150.42,-399.21"/>
</a>
</g>
<text text-anchor="start" x="165.25" y="-415" font-family="Helvetica,sans-Serif" font-size="10.00" fill="grey"> &lt; Return(Params...,</text>
<text text-anchor="middle" x="228.25" y="-403.75" font-family="Helvetica,sans-Serif" font-size="10.00" fill="grey">...) &amp;&amp;noexcept(IsNoexcept)&gt;</text>
</g>
<!-- Node9 -->
<g id="Node000009" class="node">
<title>Node9</title>
<g id="a_Node000009"><a xlink:href="../../db/d36/structmimicpp_1_1signature__add__noexcept_3_01_return_07_params_8_8_8_00_8_8_8_08_01const_01_6_6noexcept_07_is_noexcept_08_4.html" target="_top" xlink:title=" ">
<polygon fill="white" stroke="#666666" points="468.5,-337 336.25,-337 336.25,-284 468.5,-284 468.5,-337"/>
<text text-anchor="start" x="344.25" y="-323.5" font-family="Helvetica,sans-Serif" font-size="10.00">mimicpp::signature</text>
<text text-anchor="start" x="344.25" y="-312.25" font-family="Helvetica,sans-Serif" font-size="10.00">_add_noexcept&lt; Return</text>
<text text-anchor="start" x="344.25" y="-301" font-family="Helvetica,sans-Serif" font-size="10.00">(Params...,...) const</text>
<text text-anchor="middle" x="402.38" y="-289.75" font-family="Helvetica,sans-Serif" font-size="10.00"> &amp;&amp;noexcept(IsNoexcept)&gt;</text>
</a>
</g>
</g>
<!-- Node1&#45;&gt;Node9 -->
<g id="edge8_Node000001_Node000009" class="edge">
<title>Node1&#45;&gt;Node9</title>
<g id="a_edge8_Node000001_Node000009"><a xlink:title=" ">
<path fill="none" stroke="orange" stroke-dasharray="5,2" d="M95.72,-390.79C112.05,-377.33 134.43,-361.12 157,-351.75 214.62,-327.82 285.36,-317.77 335.88,-313.55"/>
<polygon fill="orange" stroke="orange" points="93.82,-387.81 88.45,-396.94 98.35,-393.15 93.82,-387.81"/>
</a>
</g>
<text text-anchor="start" x="182.88" y="-376" font-family="Helvetica,sans-Serif" font-size="10.00" fill="grey"> &lt; Return(Params...,</text>
<text text-anchor="start" x="182.88" y="-364.75" font-family="Helvetica,sans-Serif" font-size="10.00" fill="grey">...) const &amp;&amp;noexcept</text>
<text text-anchor="middle" x="228.25" y="-353.5" font-family="Helvetica,sans-Serif" font-size="10.00" fill="grey">(IsNoexcept)&gt;</text>
</g>
<!-- Node10 -->
<g id="Node000010" class="node">
<title>Node10</title>
<g id="a_Node000010"><a xlink:href="../../d9/d43/structmimicpp_1_1signature__add__noexcept_3_01_return_07_params_8_8_8_00_8_8_8_08_01const_01_6noexcept_07_is_noexcept_08_4.html" target="_top" xlink:title=" ">
<polygon fill="white" stroke="#666666" points="465.12,-266 339.62,-266 339.62,-213 465.12,-213 465.12,-266"/>
<text text-anchor="start" x="347.62" y="-252.5" font-family="Helvetica,sans-Serif" font-size="10.00">mimicpp::signature</text>
<text text-anchor="start" x="347.62" y="-241.25" font-family="Helvetica,sans-Serif" font-size="10.00">_add_noexcept&lt; Return</text>
<text text-anchor="start" x="347.62" y="-230" font-family="Helvetica,sans-Serif" font-size="10.00">(Params...,...) const</text>
<text text-anchor="middle" x="402.38" y="-218.75" font-family="Helvetica,sans-Serif" font-size="10.00"> &amp;noexcept(IsNoexcept)&gt;</text>
</a>
</g>
</g>
<!-- Node1&#45;&gt;Node10 -->
<g id="edge9_Node000001_Node000010" class="edge">
<title>Node1&#45;&gt;Node10</title>
<g id="a_edge9_Node000001_Node000010"><a xlink:title=" ">
<path fill="none" stroke="orange" stroke-dasharray="5,2" d="M79.69,-387.63C92.14,-356.64 117.45,-305.66 157,-279.75 211.31,-244.17 286.57,-236.56 339.18,-236.3"/>
<polygon fill="orange" stroke="orange" points="76.55,-386.05 76.23,-396.64 83.08,-388.56 76.55,-386.05"/>
</a>
</g>
<text text-anchor="start" x="185.5" y="-304" font-family="Helvetica,sans-Serif" font-size="10.00" fill="grey"> &lt; Return(Params...,</text>
<text text-anchor="start" x="185.5" y="-292.75" font-family="Helvetica,sans-Serif" font-size="10.00" fill="grey">...) const &amp;noexcept</text>
<text text-anchor="middle" x="228.25" y="-281.5" font-family="Helvetica,sans-Serif" font-size="10.00" fill="grey">(IsNoexcept)&gt;</text>
</g>
<!-- Node11 -->
<g id="Node000011" class="node">
<title>Node11</title>
<g id="a_Node000011"><a xlink:href="../../d9/dd9/structmimicpp_1_1signature__add__noexcept_3_01_return_07_params_8_8_8_00_8_8_8_08_01const_01noexcept_07_is_noexcept_08_4.html" target="_top" xlink:title=" ">
<polygon fill="white" stroke="#666666" points="461.75,-195 343,-195 343,-142 461.75,-142 461.75,-195"/>
<text text-anchor="start" x="351" y="-181.5" font-family="Helvetica,sans-Serif" font-size="10.00">mimicpp::signature</text>
<text text-anchor="start" x="351" y="-170.25" font-family="Helvetica,sans-Serif" font-size="10.00">_add_noexcept&lt; Return</text>
<text text-anchor="start" x="351" y="-159" font-family="Helvetica,sans-Serif" font-size="10.00">(Params...,...) const</text>
<text text-anchor="middle" x="402.38" y="-147.75" font-family="Helvetica,sans-Serif" font-size="10.00"> noexcept(IsNoexcept)&gt;</text>
</a>
</g>
</g>
<!-- Node1&#45;&gt;Node11 -->
<g id="edge10_Node000001_Node000011" class="edge">
<title>Node1&#45;&gt;Node11</title>
<g id="a_edge10_Node000001_Node000011"><a xlink:title=" ">
<path fill="none" stroke="orange" stroke-dasharray="5,2" d="M72.95,-386.62C78.71,-340.48 97.48,-246.74 157,-200.75 209.74,-159.99 288.76,-156.89 342.56,-160.71"/>
<polygon fill="orange" stroke="orange" points="69.51,-385.95 71.87,-396.27 76.46,-386.73 69.51,-385.95"/>
</a>
</g>
<text text-anchor="start" x="185.5" y="-225" font-family="Helvetica,sans-Serif" font-size="10.00" fill="grey"> &lt; Return(Params...,</text>
<text text-anchor="start" x="185.5" y="-213.75" font-family="Helvetica,sans-Serif" font-size="10.00" fill="grey">...) const noexcept</text>
<text text-anchor="middle" x="228.25" y="-202.5" font-family="Helvetica,sans-Serif" font-size="10.00" fill="grey">(IsNoexcept)&gt;</text>
</g>
<!-- Node12 -->
<g id="Node000012" class="node">
<title>Node12</title>
<g id="a_Node000012"><a xlink:href="../../db/d08/structmimicpp_1_1signature__add__noexcept_3_01_return_07_params_8_8_8_00_8_8_8_08_01noexcept_07_is_noexcept_08_4.html" target="_top" xlink:title=" ">
<polygon fill="white" stroke="#666666" points="461.38,-124 343.38,-124 343.38,-71 461.38,-71 461.38,-124"/>
<text text-anchor="start" x="351.38" y="-110.5" font-family="Helvetica,sans-Serif" font-size="10.00">mimicpp::signature</text>
<text text-anchor="start" x="351.38" y="-99.25" font-family="Helvetica,sans-Serif" font-size="10.00">_add_noexcept&lt; Return</text>
<text text-anchor="start" x="351.38" y="-88" font-family="Helvetica,sans-Serif" font-size="10.00">(Params...,...) noexcept</text>
<text text-anchor="middle" x="402.38" y="-76.75" font-family="Helvetica,sans-Serif" font-size="10.00">(IsNoexcept)&gt;</text>
</a>
</g>
</g>
<!-- Node1&#45;&gt;Node12 -->
<g id="edge11_Node000001_Node000012" class="edge">
<title>Node1&#45;&gt;Node12</title>
<g id="a_edge11_Node000001_Node000012"><a xlink:title=" ">
<path fill="none" stroke="orange" stroke-dasharray="5,2" d="M70.01,-386.56C70.57,-329.94 80.52,-198.47 157,-133 208.13,-89.23 288.46,-85.79 342.94,-89.68"/>
<polygon fill="orange" stroke="orange" points="66.51,-386.54 70.02,-396.54 73.51,-386.54 66.51,-386.54"/>
</a>
</g>
<text text-anchor="start" x="172" y="-146" font-family="Helvetica,sans-Serif" font-size="10.00" fill="grey"> &lt; Return(Params...,</text>
<text text-anchor="middle" x="228.25" y="-134.75" font-family="Helvetica,sans-Serif" font-size="10.00" fill="grey">...) noexcept(IsNoexcept)&gt;</text>
</g>
<!-- Node13 -->
<g id="Node000013" class="node">
<title>Node13</title>
<g id="a_Node000013"><a xlink:href="../../da/dc6/structmimicpp_1_1signature__add__noexcept_3_01_return_07_params_8_8_8_00_8_8_8_08_6noexcept_07_is_noexcept_08_4.html" target="_top" xlink:title=" ">
<polygon fill="white" stroke="#666666" points="461.38,-53 343.38,-53 343.38,0 461.38,0 461.38,-53"/>
<text text-anchor="start" x="351.38" y="-39.5" font-family="Helvetica,sans-Serif" font-size="10.00">mimicpp::signature</text>
<text text-anchor="start" x="351.38" y="-28.25" font-family="Helvetica,sans-Serif" font-size="10.00">_add_noexcept&lt; Return</text>
<text text-anchor="start" x="351.38" y="-17" font-family="Helvetica,sans-Serif" font-size="10.00">(Params...,...)&amp;noexcept</text>
<text text-anchor="middle" x="402.38" y="-5.75" font-family="Helvetica,sans-Serif" font-size="10.00">(IsNoexcept)&gt;</text>
</a>
</g>
</g>
<!-- Node1&#45;&gt;Node13 -->
<g id="edge12_Node000001_Node000013" class="edge">
<title>Node1&#45;&gt;Node13</title>
<g id="a_edge12_Node000001_Node000013"><a xlink:title=" ">
<path fill="none" stroke="orange" stroke-dasharray="5,2" d="M73.27,-386.63C81.52,-312.23 108.39,-106.1 157,-62 207.01,-16.63 287.98,-13.65 342.89,-18.07"/>
<polygon fill="orange" stroke="orange" points="69.83,-385.96 72.23,-396.28 76.79,-386.71 69.83,-385.96"/>
</a>
</g>
<text text-anchor="start" x="169.75" y="-75" font-family="Helvetica,sans-Serif" font-size="10.00" fill="grey"> &lt; Return(Params...,</text>
<text text-anchor="middle" x="228.25" y="-63.75" font-family="Helvetica,sans-Serif" font-size="10.00" fill="grey">...)&amp;noexcept(IsNoexcept)&gt;</text>
</g>
</g>
</svg>
