<?xml version="1.0" encoding="UTF-8" standalone="no"?>
<!DOCTYPE svg PUBLIC "-//W3C//DTD SVG 1.1//EN"
 "http://www.w3.org/Graphics/SVG/1.1/DTD/svg11.dtd">
<!-- Generated by graphviz version 12.2.1 (20241206.2353)
 -->
<!-- Title: mimicpp::signature_remove_const_qualifier&lt; Signature &gt; Pages: 1 -->
<!--zoomable 845 -->

<svg id="main" version="1.1" xmlns="http://www.w3.org/2000/svg" xmlns:xlink="http://www.w3.org/1999/xlink" xml:space="preserve" onload="init(evt)">

<style type="text/css"><![CDATA[
.node, .edge {opacity: 0.7;}
.node.selected, .edge.selected {opacity: 1;}
.edge:hover path { stroke: red; }
.edge:hover polygon { stroke: red; fill: red; }
]]></style>

<defs>
  <circle id="rim" cx="0" cy="0" r="7"/>
  <circle id="rim2" cx="0" cy="0" r="3.5"/>
  <g id="zoomPlus">
    <use xlink:href="#rim" fill="#404040"><set attributeName="fill" to="#808080" begin="zoomplus.mouseover" end="zoomplus.mouseout"/></use>
    <path d="M-4,0h8M0,-4v8" fill="none" stroke="white" stroke-width="1.5" pointer-events="none"/>
  </g>
  <g id="zoomMin">
    <use xlink:href="#rim" fill="#404040"><set attributeName="fill" to="#808080" begin="zoomminus.mouseover" end="zoomminus.mouseout"/></use>
    <path d="M-4,0h8" fill="none" stroke="white" stroke-width="1.5" pointer-events="none"/>
  </g>
  <g id="arrowUp" transform="translate(30 24)">
    <use xlink:href="#rim"/>
    <path pointer-events="none" fill="none" stroke="white" stroke-width="1.5" d="M0,-3.0v7 M-2.5,-0.5L0,-3.0L2.5,-0.5"/>
  </g>
  <g id="arrowRight" transform="rotate(90) translate(36 -43)">
    <use xlink:href="#rim"/>
    <path pointer-events="none" fill="none" stroke="white" stroke-width="1.5" d="M0,-3.0v7 M-2.5,-0.5L0,-3.0L2.5,-0.5"/>
  </g>
  <g id="arrowDown" transform="rotate(180) translate(-30 -48)">
    <use xlink:href="#rim"/>
    <path pointer-events="none" fill="none" stroke="white" stroke-width="1.5" d="M0,-3.0v7 M-2.5,-0.5L0,-3.0L2.5,-0.5"/>
  </g>
  <g id="arrowLeft" transform="rotate(270) translate(-36 17)">
    <use xlink:href="#rim"/>
    <path pointer-events="none" fill="none" stroke="white" stroke-width="1.5" d="M0,-3.0v7 M-2.5,-0.5L0,-3.0L2.5,-0.5"/>
  </g>
  <g id="resetDef">
    <use xlink:href="#rim2" fill="#404040"><set attributeName="fill" to="#808080" begin="reset.mouseover" end="reset.mouseout"/></use>
  </g>
</defs>
<script type="application/ecmascript">
var viewWidth = 466;
var viewHeight = 845;
var sectionId = 'dynsection-0';
</script>
<script type="application/ecmascript" xlink:href="../../svg.min.js"/>
<svg id="graph" class="graph">
<g id="viewport">
<title>mimicpp::signature_remove_const_qualifier&lt; Signature &gt;</title>
<!-- Node1 -->
<g id="Node000001" class="node">
<title>Node1</title>
<g id="a_Node000001"><a xlink:title="Primary template, purposely undefined.">
<polygon fill="#999999" stroke="#666666" points="121,-437.38 0,-437.38 0,-395.62 121,-395.62 121,-437.38"/>
<text text-anchor="start" x="8" y="-423.88" font-family="Helvetica,sans-Serif" font-size="10.00">mimicpp::signature</text>
<text text-anchor="start" x="8" y="-412.62" font-family="Helvetica,sans-Serif" font-size="10.00">_remove_const_qualifier</text>
<text text-anchor="middle" x="60.5" y="-401.38" font-family="Helvetica,sans-Serif" font-size="10.00">&lt; Signature &gt;</text>
</a>
</g>
</g>
<!-- Node1&#45;&gt;Node1 -->
<g id="edge1_Node000001_Node000001" class="edge">
<title>Node1&#45;&gt;Node1</title>
<g id="a_edge1_Node000001_Node000001"><a xlink:title=" ">
<path fill="none" stroke="orange" stroke-dasharray="5,2" d="M48.35,-448.82C50.53,-452.78 54.58,-455.38 60.5,-455.38 71.03,-455.38 75.64,-447.17 74.32,-437.69"/>
<polygon fill="orange" stroke="orange" points="51.85,-448.56 46.91,-439.19 44.93,-449.6 51.85,-448.56"/>
</a>
</g>
<text text-anchor="middle" x="60.5" y="-457.12" font-family="Helvetica,sans-Serif" font-size="10.00" fill="grey"> &lt; Signature &gt;</text>
</g>
<!-- Node1&#45;&gt;Node1 -->
<g id="edge14_Node000001_Node000001" class="edge">
<title>Node1&#45;&gt;Node1</title>
<g id="a_edge14_Node000001_Node000001"><a xlink:title=" ">
<path fill="none" stroke="orange" stroke-dasharray="5,2" d="M32.71,-448.36C30.61,-461.86 39.87,-473.38 60.5,-473.38 86.38,-473.38 94.37,-455.25 84.46,-437.8"/>
<polygon fill="orange" stroke="orange" points="35.91,-449.81 36.02,-439.22 29.33,-447.43 35.91,-449.81"/>
</a>
</g>
<text text-anchor="middle" x="60.5" y="-475.12" font-family="Helvetica,sans-Serif" font-size="10.00" fill="grey"> &lt; Signature &gt;</text>
</g>
<!-- Node2 -->
<g id="Node000002" class="node">
<title>Node2</title>
<g id="a_Node000002"><a xlink:href="../../d6/de5/structmimicpp_1_1signature__remove__const__qualifier_3_01_return_07_params_8_8_8_08_01_6_6noexcept_07_is_noexcept_08_4.html" target="_top" xlink:title=" ">
<polygon fill="white" stroke="#666666" points="455.75,-834 301.75,-834 301.75,-781 455.75,-781 455.75,-834"/>
<text text-anchor="start" x="309.75" y="-820.5" font-family="Helvetica,sans-Serif" font-size="10.00">mimicpp::signature</text>
<text text-anchor="start" x="309.75" y="-809.25" font-family="Helvetica,sans-Serif" font-size="10.00">_remove_const_qualifier</text>
<text text-anchor="start" x="309.75" y="-798" font-family="Helvetica,sans-Serif" font-size="10.00">&lt; Return(Params...) &amp;&amp;noexcept</text>
<text text-anchor="middle" x="378.75" y="-786.75" font-family="Helvetica,sans-Serif" font-size="10.00">(IsNoexcept)&gt;</text>
</a>
</g>
</g>
<!-- Node1&#45;&gt;Node2 -->
<g id="edge2_Node000001_Node000002" class="edge">
<title>Node1&#45;&gt;Node2</title>
<g id="a_edge2_Node000001_Node000002"><a xlink:title=" ">
<path fill="none" stroke="orange" stroke-dasharray="5,2" d="M64.08,-448.61C71.03,-526.75 92.84,-723.65 139,-767.5 181.66,-808.02 249.06,-816.19 301.39,-815.27"/>
<polygon fill="orange" stroke="orange" points="67.6,-448.72 63.25,-439.06 60.63,-449.32 67.6,-448.72"/>
</a>
</g>
<text text-anchor="start" x="152.12" y="-827.92" font-family="Helvetica,sans-Serif" font-size="10.00" fill="grey"> &lt; Return(Params...)</text>
<text text-anchor="middle" x="210.25" y="-816.67" font-family="Helvetica,sans-Serif" font-size="10.00" fill="grey"> &amp;&amp;noexcept(IsNoexcept)&gt;</text>
</g>
<!-- Node3 -->
<g id="Node000003" class="node">
<title>Node3</title>
<g id="a_Node000003"><a xlink:href="../../d8/d54/structmimicpp_1_1signature__remove__const__qualifier_3_01_return_07_params_8_8_8_08_01_6noexcept_07_is_noexcept_08_4.html" target="_top" xlink:title=" ">
<polygon fill="white" stroke="#666666" points="452.38,-763 305.12,-763 305.12,-710 452.38,-710 452.38,-763"/>
<text text-anchor="start" x="313.12" y="-749.5" font-family="Helvetica,sans-Serif" font-size="10.00">mimicpp::signature</text>
<text text-anchor="start" x="313.12" y="-738.25" font-family="Helvetica,sans-Serif" font-size="10.00">_remove_const_qualifier</text>
<text text-anchor="start" x="313.12" y="-727" font-family="Helvetica,sans-Serif" font-size="10.00">&lt; Return(Params...) &amp;noexcept</text>
<text text-anchor="middle" x="378.75" y="-715.75" font-family="Helvetica,sans-Serif" font-size="10.00">(IsNoexcept)&gt;</text>
</a>
</g>
</g>
<!-- Node1&#45;&gt;Node3 -->
<g id="edge3_Node000001_Node000003" class="edge">
<title>Node1&#45;&gt;Node3</title>
<g id="a_edge3_Node000001_Node000003"><a xlink:title=" ">
<path fill="none" stroke="orange" stroke-dasharray="5,2" d="M66.32,-449.05C76.69,-514.5 103.09,-658.63 139,-691.5 183.34,-732.08 252.29,-741.43 304.72,-741.74"/>
<polygon fill="orange" stroke="orange" points="69.8,-448.62 64.81,-439.28 62.88,-449.7 69.8,-448.62"/>
</a>
</g>
<text text-anchor="start" x="155.5" y="-753.64" font-family="Helvetica,sans-Serif" font-size="10.00" fill="grey"> &lt; Return(Params...)</text>
<text text-anchor="middle" x="210.25" y="-742.39" font-family="Helvetica,sans-Serif" font-size="10.00" fill="grey"> &amp;noexcept(IsNoexcept)&gt;</text>
</g>
<!-- Node4 -->
<g id="Node000004" class="node">
<title>Node4</title>
<g id="a_Node000004"><a xlink:href="../../df/d87/structmimicpp_1_1signature__remove__const__qualifier_3_01_return_07_params_8_8_8_08_01const_01_6_6noexcept_07_is_noexcept_08_4.html" target="_top" xlink:title=" ">
<polygon fill="white" stroke="#666666" points="444.88,-692 312.62,-692 312.62,-639 444.88,-639 444.88,-692"/>
<text text-anchor="start" x="320.62" y="-678.5" font-family="Helvetica,sans-Serif" font-size="10.00">mimicpp::signature</text>
<text text-anchor="start" x="320.62" y="-667.25" font-family="Helvetica,sans-Serif" font-size="10.00">_remove_const_qualifier</text>
<text text-anchor="start" x="320.62" y="-656" font-family="Helvetica,sans-Serif" font-size="10.00">&lt; Return(Params...) const</text>
<text text-anchor="middle" x="378.75" y="-644.75" font-family="Helvetica,sans-Serif" font-size="10.00"> &amp;&amp;noexcept(IsNoexcept)&gt;</text>
</a>
</g>
</g>
<!-- Node1&#45;&gt;Node4 -->
<g id="edge4_Node000001_Node000004" class="edge">
<title>Node1&#45;&gt;Node4</title>
<g id="a_edge4_Node000001_Node000004"><a xlink:title=" ">
<path fill="none" stroke="orange" stroke-dasharray="5,2" d="M64.83,-449.16C71.16,-493.52 89.13,-572.14 139,-614.5 186.97,-655.24 259.63,-665.88 312.19,-667.63"/>
<polygon fill="orange" stroke="orange" points="68.32,-448.84 63.56,-439.38 61.38,-449.74 68.32,-448.84"/>
</a>
</g>
<text text-anchor="start" x="139" y="-678.21" font-family="Helvetica,sans-Serif" font-size="10.00" fill="grey"> &lt; Return(Params...)</text>
<text text-anchor="middle" x="210.25" y="-666.96" font-family="Helvetica,sans-Serif" font-size="10.00" fill="grey"> const &amp;&amp;noexcept(IsNoexcept)&gt;</text>
</g>
<!-- Node5 -->
<g id="Node000005" class="node">
<title>Node5</title>
<g id="a_Node000005"><a xlink:href="../../d8/d5e/structmimicpp_1_1signature__remove__const__qualifier_3_01_return_07_params_8_8_8_08_01const_01_6noexcept_07_is_noexcept_08_4.html" target="_top" xlink:title=" ">
<polygon fill="white" stroke="#666666" points="441.5,-621 316,-621 316,-568 441.5,-568 441.5,-621"/>
<text text-anchor="start" x="324" y="-607.5" font-family="Helvetica,sans-Serif" font-size="10.00">mimicpp::signature</text>
<text text-anchor="start" x="324" y="-596.25" font-family="Helvetica,sans-Serif" font-size="10.00">_remove_const_qualifier</text>
<text text-anchor="start" x="324" y="-585" font-family="Helvetica,sans-Serif" font-size="10.00">&lt; Return(Params...) const</text>
<text text-anchor="middle" x="378.75" y="-573.75" font-family="Helvetica,sans-Serif" font-size="10.00"> &amp;noexcept(IsNoexcept)&gt;</text>
</a>
</g>
</g>
<!-- Node1&#45;&gt;Node5 -->
<g id="edge5_Node000001_Node000005" class="edge">
<title>Node1&#45;&gt;Node5</title>
<g id="a_edge5_Node000001_Node000005"><a xlink:title=" ">
<path fill="none" stroke="orange" stroke-dasharray="5,2" d="M73.57,-447.96C85.86,-475.73 107.58,-515.18 139,-537.5 191.11,-574.52 264.12,-587.73 315.65,-592.32"/>
<polygon fill="orange" stroke="orange" points="76.89,-446.82 69.77,-438.97 70.45,-449.55 76.89,-446.82"/>
</a>
</g>
<text text-anchor="start" x="142.38" y="-601.01" font-family="Helvetica,sans-Serif" font-size="10.00" fill="grey"> &lt; Return(Params...)</text>
<text text-anchor="middle" x="210.25" y="-589.76" font-family="Helvetica,sans-Serif" font-size="10.00" fill="grey"> const &amp;noexcept(IsNoexcept)&gt;</text>
</g>
<!-- Node6 -->
<g id="Node000006" class="node">
<title>Node6</title>
<g id="a_Node000006"><a xlink:href="../../db/d41/structmimicpp_1_1signature__remove__const__qualifier_3_01_return_07_params_8_8_8_08_01const_01noexcept_07_is_noexcept_08_4.html" target="_top" xlink:title=" ">
<polygon fill="white" stroke="#666666" points="441.5,-550 316,-550 316,-497 441.5,-497 441.5,-550"/>
<text text-anchor="start" x="324" y="-536.5" font-family="Helvetica,sans-Serif" font-size="10.00">mimicpp::signature</text>
<text text-anchor="start" x="324" y="-525.25" font-family="Helvetica,sans-Serif" font-size="10.00">_remove_const_qualifier</text>
<text text-anchor="start" x="324" y="-514" font-family="Helvetica,sans-Serif" font-size="10.00">&lt; Return(Params...) const</text>
<text text-anchor="middle" x="378.75" y="-502.75" font-family="Helvetica,sans-Serif" font-size="10.00"> noexcept(IsNoexcept)&gt;</text>
</a>
</g>
</g>
<!-- Node1&#45;&gt;Node6 -->
<g id="edge6_Node000001_Node000006" class="edge">
<title>Node1&#45;&gt;Node6</title>
<g id="a_edge6_Node000001_Node000006"><a xlink:title=" ">
<path fill="none" stroke="orange" stroke-dasharray="5,2" d="M95.11,-444.83C108.12,-454.55 123.58,-464.69 139,-471.5 195.95,-496.65 266.06,-510.05 315.53,-516.91"/>
<polygon fill="orange" stroke="orange" points="97.35,-442.14 87.3,-438.8 93.08,-447.68 97.35,-442.14"/>
</a>
</g>
<text text-anchor="start" x="145.75" y="-524" font-family="Helvetica,sans-Serif" font-size="10.00" fill="grey"> &lt; Return(Params...)</text>
<text text-anchor="middle" x="210.25" y="-512.75" font-family="Helvetica,sans-Serif" font-size="10.00" fill="grey"> const noexcept(IsNoexcept)&gt;</text>
</g>
<!-- Node7 -->
<g id="Node000007" class="node">
<title>Node7</title>
<g id="a_Node000007"><a xlink:href="../../df/dbd/structmimicpp_1_1signature__remove__const__qualifier_3_01_return_07_params_8_8_8_08_01noexcept_07_is_noexcept_08_4.html" target="_top" xlink:title=" ">
<polygon fill="white" stroke="#666666" points="449,-479 308.5,-479 308.5,-426 449,-426 449,-479"/>
<text text-anchor="start" x="316.5" y="-465.5" font-family="Helvetica,sans-Serif" font-size="10.00">mimicpp::signature</text>
<text text-anchor="start" x="316.5" y="-454.25" font-family="Helvetica,sans-Serif" font-size="10.00">_remove_const_qualifier</text>
<text text-anchor="start" x="316.5" y="-443" font-family="Helvetica,sans-Serif" font-size="10.00">&lt; Return(Params...) noexcept</text>
<text text-anchor="middle" x="378.75" y="-431.75" font-family="Helvetica,sans-Serif" font-size="10.00">(IsNoexcept)&gt;</text>
</a>
</g>
</g>
<!-- Node1&#45;&gt;Node7 -->
<g id="edge7_Node000001_Node000007" class="edge">
<title>Node1&#45;&gt;Node7</title>
<g id="a_edge7_Node000001_Node000007"><a xlink:title=" ">
<path fill="none" stroke="orange" stroke-dasharray="5,2" d="M132.79,-429.62C134.88,-429.93 136.96,-430.22 139,-430.5 195.71,-438.22 260.38,-443.99 308.09,-447.69"/>
<polygon fill="orange" stroke="orange" points="133.41,-426.17 122.99,-428.1 132.34,-433.09 133.41,-426.17"/>
</a>
</g>
<text text-anchor="start" x="158.88" y="-458.48" font-family="Helvetica,sans-Serif" font-size="10.00" fill="grey"> &lt; Return(Params...)</text>
<text text-anchor="middle" x="210.25" y="-447.23" font-family="Helvetica,sans-Serif" font-size="10.00" fill="grey"> noexcept(IsNoexcept)&gt;</text>
</g>
<!-- Node8 -->
<g id="Node000008" class="node">
<title>Node8</title>
<g id="a_Node000008"><a xlink:href="../../d7/d84/structmimicpp_1_1signature__remove__const__qualifier_3_01_return_07_params_8_8_8_00_8_8_8_08_01_6_6noexcept_07_is_noexcept_08_4.html" target="_top" xlink:title=" ">
<polygon fill="white" stroke="#666666" points="444.88,-408 312.62,-408 312.62,-355 444.88,-355 444.88,-408"/>
<text text-anchor="start" x="320.62" y="-394.5" font-family="Helvetica,sans-Serif" font-size="10.00">mimicpp::signature</text>
<text text-anchor="start" x="320.62" y="-383.25" font-family="Helvetica,sans-Serif" font-size="10.00">_remove_const_qualifier</text>
<text text-anchor="start" x="320.62" y="-372" font-family="Helvetica,sans-Serif" font-size="10.00">&lt; Return(Params...,...)</text>
<text text-anchor="middle" x="378.75" y="-360.75" font-family="Helvetica,sans-Serif" font-size="10.00"> &amp;&amp;noexcept(IsNoexcept)&gt;</text>
</a>
</g>
</g>
<!-- Node1&#45;&gt;Node8 -->
<g id="edge8_Node000001_Node000008" class="edge">
<title>Node1&#45;&gt;Node8</title>
<g id="a_edge8_Node000001_Node000008"><a xlink:title=" ">
<path fill="none" stroke="orange" stroke-dasharray="5,2" d="M132.53,-408.64C186.34,-402.68 259.7,-394.56 312.14,-388.76"/>
<polygon fill="orange" stroke="orange" points="132.41,-405.13 122.86,-409.71 133.18,-412.09 132.41,-405.13"/>
</a>
</g>
<text text-anchor="start" x="147.25" y="-420.11" font-family="Helvetica,sans-Serif" font-size="10.00" fill="grey"> &lt; Return(Params...,</text>
<text text-anchor="middle" x="210.25" y="-408.86" font-family="Helvetica,sans-Serif" font-size="10.00" fill="grey">...) &amp;&amp;noexcept(IsNoexcept)&gt;</text>
</g>
<!-- Node9 -->
<g id="Node000009" class="node">
<title>Node9</title>
<g id="a_Node000009"><a xlink:href="../../d0/d56/structmimicpp_1_1signature__remove__const__qualifier_3_01_return_07_params_8_8_8_00_8_8_8_08_01_6noexcept_07_is_noexcept_08_4.html" target="_top" xlink:title=" ">
<polygon fill="white" stroke="#666666" points="441.5,-337 316,-337 316,-284 441.5,-284 441.5,-337"/>
<text text-anchor="start" x="324" y="-323.5" font-family="Helvetica,sans-Serif" font-size="10.00">mimicpp::signature</text>
<text text-anchor="start" x="324" y="-312.25" font-family="Helvetica,sans-Serif" font-size="10.00">_remove_const_qualifier</text>
<text text-anchor="start" x="324" y="-301" font-family="Helvetica,sans-Serif" font-size="10.00">&lt; Return(Params...,...)</text>
<text text-anchor="middle" x="378.75" y="-289.75" font-family="Helvetica,sans-Serif" font-size="10.00"> &amp;noexcept(IsNoexcept)&gt;</text>
</a>
</g>
</g>
<!-- Node1&#45;&gt;Node9 -->
<g id="edge9_Node000001_Node000009" class="edge">
<title>Node1&#45;&gt;Node9</title>
<g id="a_edge9_Node000001_Node000009"><a xlink:title=" ">
<path fill="none" stroke="orange" stroke-dasharray="5,2" d="M98.01,-388.96C110.49,-380.59 124.87,-372.02 139,-366 196.35,-341.55 266.25,-326.91 315.55,-318.86"/>
<polygon fill="orange" stroke="orange" points="96.35,-385.86 90.11,-394.42 100.33,-391.61 96.35,-385.86"/>
</a>
</g>
<text text-anchor="start" x="150.62" y="-379" font-family="Helvetica,sans-Serif" font-size="10.00" fill="grey"> &lt; Return(Params...,</text>
<text text-anchor="middle" x="210.25" y="-367.75" font-family="Helvetica,sans-Serif" font-size="10.00" fill="grey">...) &amp;noexcept(IsNoexcept)&gt;</text>
</g>
<!-- Node10 -->
<g id="Node000010" class="node">
<title>Node10</title>
<g id="a_Node000010"><a xlink:href="../../d9/d27/structmimicpp_1_1signature__remove__const__qualifier_3_01_return_07_params_8_8_8_00_8_8_8_08_01c08f7a23f8807abbe2349085331feb065.html" target="_top" xlink:title=" ">
<polygon fill="white" stroke="#666666" points="458,-266 299.5,-266 299.5,-213 458,-213 458,-266"/>
<text text-anchor="start" x="307.5" y="-252.5" font-family="Helvetica,sans-Serif" font-size="10.00">mimicpp::signature</text>
<text text-anchor="start" x="307.5" y="-241.25" font-family="Helvetica,sans-Serif" font-size="10.00">_remove_const_qualifier</text>
<text text-anchor="start" x="307.5" y="-230" font-family="Helvetica,sans-Serif" font-size="10.00">&lt; Return(Params...,...)</text>
<text text-anchor="middle" x="378.75" y="-218.75" font-family="Helvetica,sans-Serif" font-size="10.00"> const &amp;&amp;noexcept(IsNoexcept)&gt;</text>
</a>
</g>
</g>
<!-- Node1&#45;&gt;Node10 -->
<g id="edge10_Node000001_Node000010" class="edge">
<title>Node1&#45;&gt;Node10</title>
<g id="a_edge10_Node000001_Node000010"><a xlink:title=" ">
<path fill="none" stroke="orange" stroke-dasharray="5,2" d="M72.1,-384.69C83.73,-354.89 105.35,-311.48 139,-287.75 185.57,-254.91 249.26,-243.28 299.15,-239.62"/>
<polygon fill="orange" stroke="orange" points="68.86,-383.37 68.66,-393.96 75.42,-385.81 68.86,-383.37"/>
</a>
</g>
<text text-anchor="start" x="164.88" y="-312" font-family="Helvetica,sans-Serif" font-size="10.00" fill="grey"> &lt; Return(Params...,</text>
<text text-anchor="start" x="164.88" y="-300.75" font-family="Helvetica,sans-Serif" font-size="10.00" fill="grey">...) const &amp;&amp;noexcept</text>
<text text-anchor="middle" x="210.25" y="-289.5" font-family="Helvetica,sans-Serif" font-size="10.00" fill="grey">(IsNoexcept)&gt;</text>
</g>
<!-- Node11 -->
<g id="Node000011" class="node">
<title>Node11</title>
<g id="a_Node000011"><a xlink:href="../../db/dff/structmimicpp_1_1signature__remove__const__qualifier_3_01_return_07_params_8_8_8_00_8_8_8_08_01c054c64dff9e1c1639cbd172d84e88165.html" target="_top" xlink:title=" ">
<polygon fill="white" stroke="#666666" points="454.62,-195 302.88,-195 302.88,-142 454.62,-142 454.62,-195"/>
<text text-anchor="start" x="310.88" y="-181.5" font-family="Helvetica,sans-Serif" font-size="10.00">mimicpp::signature</text>
<text text-anchor="start" x="310.88" y="-170.25" font-family="Helvetica,sans-Serif" font-size="10.00">_remove_const_qualifier</text>
<text text-anchor="start" x="310.88" y="-159" font-family="Helvetica,sans-Serif" font-size="10.00">&lt; Return(Params...,...)</text>
<text text-anchor="middle" x="378.75" y="-147.75" font-family="Helvetica,sans-Serif" font-size="10.00"> const &amp;noexcept(IsNoexcept)&gt;</text>
</a>
</g>
</g>
<!-- Node1&#45;&gt;Node11 -->
<g id="edge11_Node000001_Node000011" class="edge">
<title>Node1&#45;&gt;Node11</title>
<g id="a_edge11_Node000001_Node000011"><a xlink:title=" ">
<path fill="none" stroke="orange" stroke-dasharray="5,2" d="M63.38,-383.81C67.99,-336.22 83.93,-248.65 139,-203.75 184.3,-166.82 251.12,-159.67 302.56,-160.81"/>
<polygon fill="orange" stroke="orange" points="59.89,-383.51 62.54,-393.77 66.87,-384.1 59.89,-383.51"/>
</a>
</g>
<text text-anchor="start" x="167.5" y="-228" font-family="Helvetica,sans-Serif" font-size="10.00" fill="grey"> &lt; Return(Params...,</text>
<text text-anchor="start" x="167.5" y="-216.75" font-family="Helvetica,sans-Serif" font-size="10.00" fill="grey">...) const &amp;noexcept</text>
<text text-anchor="middle" x="210.25" y="-205.5" font-family="Helvetica,sans-Serif" font-size="10.00" fill="grey">(IsNoexcept)&gt;</text>
</g>
<!-- Node12 -->
<g id="Node000012" class="node">
<title>Node12</title>
<g id="a_Node000012"><a xlink:href="../../d6/d57/structmimicpp_1_1signature__remove__const__qualifier_3_01_return_07_params_8_8_8_00_8_8_8_08_01cef1d37cd566a214029f118beae1aa793.html" target="_top" xlink:title=" ">
<polygon fill="white" stroke="#666666" points="451.25,-124 306.25,-124 306.25,-71 451.25,-71 451.25,-124"/>
<text text-anchor="start" x="314.25" y="-110.5" font-family="Helvetica,sans-Serif" font-size="10.00">mimicpp::signature</text>
<text text-anchor="start" x="314.25" y="-99.25" font-family="Helvetica,sans-Serif" font-size="10.00">_remove_const_qualifier</text>
<text text-anchor="start" x="314.25" y="-88" font-family="Helvetica,sans-Serif" font-size="10.00">&lt; Return(Params...,...)</text>
<text text-anchor="middle" x="378.75" y="-76.75" font-family="Helvetica,sans-Serif" font-size="10.00"> const noexcept(IsNoexcept)&gt;</text>
</a>
</g>
</g>
<!-- Node1&#45;&gt;Node12 -->
<g id="edge12_Node000001_Node000012" class="edge">
<title>Node1&#45;&gt;Node12</title>
<g id="a_edge12_Node000001_Node000012"><a xlink:title=" ">
<path fill="none" stroke="orange" stroke-dasharray="5,2" d="M65.39,-384.37C74.44,-315.45 99.17,-156.92 139,-122.75 184.31,-83.87 253.67,-80.6 305.98,-85.25"/>
<polygon fill="orange" stroke="orange" points="61.97,-383.52 64.17,-393.88 68.92,-384.41 61.97,-383.52"/>
</a>
</g>
<text text-anchor="start" x="167.5" y="-147" font-family="Helvetica,sans-Serif" font-size="10.00" fill="grey"> &lt; Return(Params...,</text>
<text text-anchor="start" x="167.5" y="-135.75" font-family="Helvetica,sans-Serif" font-size="10.00" fill="grey">...) const noexcept</text>
<text text-anchor="middle" x="210.25" y="-124.5" font-family="Helvetica,sans-Serif" font-size="10.00" fill="grey">(IsNoexcept)&gt;</text>
</g>
<!-- Node13 -->
<g id="Node000013" class="node">
<title>Node13</title>
<g id="a_Node000013"><a xlink:href="../../d2/d78/structmimicpp_1_1signature__remove__const__qualifier_3_01_return_07_params_8_8_8_00_8_8_8_08_01noexcept_07_is_noexcept_08_4.html" target="_top" xlink:title=" ">
<polygon fill="white" stroke="#666666" points="439.25,-53 318.25,-53 318.25,0 439.25,0 439.25,-53"/>
<text text-anchor="start" x="326.25" y="-39.5" font-family="Helvetica,sans-Serif" font-size="10.00">mimicpp::signature</text>
<text text-anchor="start" x="326.25" y="-28.25" font-family="Helvetica,sans-Serif" font-size="10.00">_remove_const_qualifier</text>
<text text-anchor="start" x="326.25" y="-17" font-family="Helvetica,sans-Serif" font-size="10.00">&lt; Return(Params...,...)</text>
<text text-anchor="middle" x="378.75" y="-5.75" font-family="Helvetica,sans-Serif" font-size="10.00"> noexcept(IsNoexcept)&gt;</text>
</a>
</g>
</g>
<!-- Node1&#45;&gt;Node13 -->
<g id="edge13_Node000001_Node000013" class="edge">
<title>Node1&#45;&gt;Node13</title>
<g id="a_edge13_Node000001_Node000013"><a xlink:title=" ">
<path fill="none" stroke="orange" stroke-dasharray="5,2" d="M63.81,-384.07C70.2,-304.18 90.91,-101.15 139,-57 186.71,-13.19 264.17,-11.25 317.86,-16.54"/>
<polygon fill="orange" stroke="orange" points="60.33,-383.61 63.05,-393.85 67.31,-384.15 60.33,-383.61"/>
</a>
</g>
<text text-anchor="start" x="154" y="-70" font-family="Helvetica,sans-Serif" font-size="10.00" fill="grey"> &lt; Return(Params...,</text>
<text text-anchor="middle" x="210.25" y="-58.75" font-family="Helvetica,sans-Serif" font-size="10.00" fill="grey">...) noexcept(IsNoexcept)&gt;</text>
</g>
</g>
</svg>

<g id="navigator" transform="translate(0 0)" fill="#404254">
  <rect fill="#f2f5e9" fill-opacity="0.5" stroke="#606060" stroke-width=".5" x="0" y="0" width="60" height="60"/>
  <use id="zoomplus" xlink:href="#zoomPlus" x="17" y="9" onmousedown="handleZoom(evt,'in')"/>
  <use id="zoomminus" xlink:href="#zoomMin" x="42" y="9" onmousedown="handleZoom(evt,'out')"/>
  <use id="reset" xlink:href="#resetDef" x="30" y="36" onmousedown="handleReset()"/>
   <use id="arrowup" xlink:href="#arrowUp" x="0" y="0" onmousedown="handlePan(0,-1)"/>
  <use id="arrowright" xlink:href="#arrowRight" x="0" y="0" onmousedown="handlePan(1,0)"/>
  <use id="arrowdown" xlink:href="#arrowDown" x="0" y="0" onmousedown="handlePan(0,1)"/>
  <use id="arrowleft" xlink:href="#arrowLeft" x="0" y="0" onmousedown="handlePan(-1,0)"/>
</g>
<svg viewBox="0 0 15 15" width="100%" height="30px" preserveAspectRatio="xMaxYMin meet">
 <g id="arrow_out" transform="scale(0.3 0.3)">
  <a xlink:href="structmimicpp_1_1signature__remove__const__qualifier__inherit__graph_org.svg" target="_base">
   <rect id="button" ry="5" rx="5" y="6" x="6" height="38" width="38"
        fill="#f2f5e9" fill-opacity="0.5" stroke="#606060" stroke-width="1.0"/>
   <path id="arrow"
     d="M 11.500037,31.436501 C 11.940474,20.09759 22.043105,11.32322 32.158766,21.979434 L 37.068811,17.246167 C 37.068811,17.246167 37.088388,32 37.088388,32 L 22.160133,31.978069 C 22.160133,31.978069 26.997745,27.140456 26.997745,27.140456 C 18.528582,18.264221 13.291696,25.230495 11.500037,31.436501 z"
     style="fill:#404040;"/>
  </a>
 </g>
</svg>

<style type='text/css'>
<![CDATA[
[data-mouse-over-selected='false'] { opacity: 0.7; }
[data-mouse-over-selected='true']  { opacity: 1.0; }
]]>
</style>
<script type="application/ecmascript"><![CDATA[
document.addEventListener('DOMContentLoaded', (event) => {
  highlightEdges();
  highlightAdjacentNodes();
});
]]></script>
</svg>
