<?xml version="1.0" encoding="UTF-8" standalone="no"?>
<!DOCTYPE svg PUBLIC "-//W3C//DTD SVG 1.1//EN"
 "http://www.w3.org/Graphics/SVG/1.1/DTD/svg11.dtd">
<!-- Generated by graphviz version 12.2.1 (20241206.2353)
 -->
<!-- Title: mimicpp::signature_remove_noexcept&lt; Signature &gt; Pages: 1 -->
<!--zoomable 821 -->

<svg id="main" version="1.1" xmlns="http://www.w3.org/2000/svg" xmlns:xlink="http://www.w3.org/1999/xlink" xml:space="preserve" onload="init(evt)">

<style type="text/css"><![CDATA[
.node, .edge {opacity: 0.7;}
.node.selected, .edge.selected {opacity: 1;}
.edge:hover path { stroke: red; }
.edge:hover polygon { stroke: red; fill: red; }
]]></style>

<defs>
  <circle id="rim" cx="0" cy="0" r="7"/>
  <circle id="rim2" cx="0" cy="0" r="3.5"/>
  <g id="zoomPlus">
    <use xlink:href="#rim" fill="#404040"><set attributeName="fill" to="#808080" begin="zoomplus.mouseover" end="zoomplus.mouseout"/></use>
    <path d="M-4,0h8M0,-4v8" fill="none" stroke="white" stroke-width="1.5" pointer-events="none"/>
  </g>
  <g id="zoomMin">
    <use xlink:href="#rim" fill="#404040"><set attributeName="fill" to="#808080" begin="zoomminus.mouseover" end="zoomminus.mouseout"/></use>
    <path d="M-4,0h8" fill="none" stroke="white" stroke-width="1.5" pointer-events="none"/>
  </g>
  <g id="arrowUp" transform="translate(30 24)">
    <use xlink:href="#rim"/>
    <path pointer-events="none" fill="none" stroke="white" stroke-width="1.5" d="M0,-3.0v7 M-2.5,-0.5L0,-3.0L2.5,-0.5"/>
  </g>
  <g id="arrowRight" transform="rotate(90) translate(36 -43)">
    <use xlink:href="#rim"/>
    <path pointer-events="none" fill="none" stroke="white" stroke-width="1.5" d="M0,-3.0v7 M-2.5,-0.5L0,-3.0L2.5,-0.5"/>
  </g>
  <g id="arrowDown" transform="rotate(180) translate(-30 -48)">
    <use xlink:href="#rim"/>
    <path pointer-events="none" fill="none" stroke="white" stroke-width="1.5" d="M0,-3.0v7 M-2.5,-0.5L0,-3.0L2.5,-0.5"/>
  </g>
  <g id="arrowLeft" transform="rotate(270) translate(-36 17)">
    <use xlink:href="#rim"/>
    <path pointer-events="none" fill="none" stroke="white" stroke-width="1.5" d="M0,-3.0v7 M-2.5,-0.5L0,-3.0L2.5,-0.5"/>
  </g>
  <g id="resetDef">
    <use xlink:href="#rim2" fill="#404040"><set attributeName="fill" to="#808080" begin="reset.mouseover" end="reset.mouseout"/></use>
  </g>
</defs>
<script type="application/ecmascript">
var viewWidth = 512;
var viewHeight = 821;
var sectionId = 'dynsection-0';
</script>
<script type="application/ecmascript" xlink:href="../../svg.min.js"/>
<svg id="graph" class="graph">
<g id="viewport">
<title>mimicpp::signature_remove_noexcept&lt; Signature &gt;</title>
<!-- Node1 -->
<g id="Node000001" class="node">
<title>Node1</title>
<g id="a_Node000001"><a xlink:title="Primary template, purposely undefined.">
<polygon fill="#999999" stroke="#666666" points="155.5,-428.75 0,-428.75 0,-398.25 155.5,-398.25 155.5,-428.75"/>
<text text-anchor="start" x="8" y="-415.25" font-family="Helvetica,sans-Serif" font-size="10.00">mimicpp::signature</text>
<text text-anchor="middle" x="77.75" y="-404" font-family="Helvetica,sans-Serif" font-size="10.00">_remove_noexcept&lt; Signature &gt;</text>
</a>
</g>
</g>
<!-- Node1&#45;&gt;Node1 -->
<g id="edge1_Node000001_Node000001" class="edge">
<title>Node1&#45;&gt;Node1</title>
<g id="a_edge1_Node000001_Node000001"><a xlink:title=" ">
<path fill="none" stroke="orange" stroke-dasharray="5,2" d="M63.75,-440.45C66.04,-444.22 70.7,-446.75 77.75,-446.75 90.63,-446.75 95.57,-438.31 92.55,-429.24"/>
<polygon fill="orange" stroke="orange" points="67.26,-440.47 63.06,-430.75 60.27,-440.97 67.26,-440.47"/>
</a>
</g>
<text text-anchor="middle" x="77.75" y="-448.5" font-family="Helvetica,sans-Serif" font-size="10.00" fill="grey"> &lt; Signature &gt;</text>
</g>
<!-- Node1&#45;&gt;Node1 -->
<g id="edge14_Node000001_Node000001" class="edge">
<title>Node1&#45;&gt;Node1</title>
<g id="a_edge14_Node000001_Node000001"><a xlink:title=" ">
<path fill="none" stroke="orange" stroke-dasharray="5,2" d="M47.77,-438.72C42.58,-452.33 52.57,-464.75 77.75,-464.75 108.74,-464.75 116.72,-445.93 101.72,-429.24"/>
<polygon fill="orange" stroke="orange" points="50.57,-440.84 52.97,-430.52 44.66,-437.08 50.57,-440.84"/>
</a>
</g>
<text text-anchor="middle" x="77.75" y="-466.5" font-family="Helvetica,sans-Serif" font-size="10.00" fill="grey"> &lt; Signature &gt;</text>
</g>
<!-- Node2 -->
<g id="Node000002" class="node">
<title>Node2</title>
<g id="a_Node000002"><a xlink:href="../../d5/dee/structmimicpp_1_1signature__remove__noexcept_3_01_return_07_params_8_8_8_08_01_6_6noexcept_07_is_noexcept_08_4.html" target="_top" xlink:title=" ">
<polygon fill="white" stroke="#666666" points="486.12,-811 351.62,-811 351.62,-758 486.12,-758 486.12,-811"/>
<text text-anchor="start" x="359.62" y="-797.5" font-family="Helvetica,sans-Serif" font-size="10.00">mimicpp::signature</text>
<text text-anchor="start" x="359.62" y="-786.25" font-family="Helvetica,sans-Serif" font-size="10.00">_remove_noexcept&lt; Return</text>
<text text-anchor="start" x="359.62" y="-775" font-family="Helvetica,sans-Serif" font-size="10.00">(Params...) &amp;&amp;noexcept</text>
<text text-anchor="middle" x="418.88" y="-763.75" font-family="Helvetica,sans-Serif" font-size="10.00">(IsNoexcept)&gt;</text>
</a>
</g>
</g>
<!-- Node1&#45;&gt;Node2 -->
<g id="edge2_Node000001_Node000002" class="edge">
<title>Node1&#45;&gt;Node2</title>
<g id="a_edge2_Node000001_Node000002"><a xlink:title=" ">
<path fill="none" stroke="orange" stroke-dasharray="5,2" d="M82.72,-440.03C93.84,-510.77 127.56,-701.36 173.5,-742.5 221.52,-785.5 296.98,-792.57 351.35,-791.02"/>
<polygon fill="orange" stroke="orange" points="86.23,-439.85 81.25,-430.5 79.31,-440.92 86.23,-439.85"/>
</a>
</g>
<text text-anchor="start" x="186.62" y="-803.57" font-family="Helvetica,sans-Serif" font-size="10.00" fill="grey"> &lt; Return(Params...)</text>
<text text-anchor="middle" x="244.75" y="-792.32" font-family="Helvetica,sans-Serif" font-size="10.00" fill="grey"> &amp;&amp;noexcept(IsNoexcept)&gt;</text>
</g>
<!-- Node3 -->
<g id="Node000003" class="node">
<title>Node3</title>
<g id="a_Node000003"><a xlink:href="../../d4/d59/structmimicpp_1_1signature__remove__noexcept_3_01_return_07_params_8_8_8_08_01const_01_6_6noexcept_07_is_noexcept_08_4.html" target="_top" xlink:title=" ">
<polygon fill="white" stroke="#666666" points="490.62,-740 347.12,-740 347.12,-687 490.62,-687 490.62,-740"/>
<text text-anchor="start" x="355.12" y="-726.5" font-family="Helvetica,sans-Serif" font-size="10.00">mimicpp::signature</text>
<text text-anchor="start" x="355.12" y="-715.25" font-family="Helvetica,sans-Serif" font-size="10.00">_remove_noexcept&lt; Return</text>
<text text-anchor="start" x="355.12" y="-704" font-family="Helvetica,sans-Serif" font-size="10.00">(Params...) const &amp;&amp;noexcept</text>
<text text-anchor="middle" x="418.88" y="-692.75" font-family="Helvetica,sans-Serif" font-size="10.00">(IsNoexcept)&gt;</text>
</a>
</g>
</g>
<!-- Node1&#45;&gt;Node3 -->
<g id="edge3_Node000001_Node000003" class="edge">
<title>Node1&#45;&gt;Node3</title>
<g id="a_edge3_Node000001_Node000003"><a xlink:title=" ">
<path fill="none" stroke="orange" stroke-dasharray="5,2" d="M80.41,-440.29C85.18,-492.65 103.51,-608.56 173.5,-667.5 221.38,-707.82 293.42,-717.22 346.89,-717.8"/>
<polygon fill="orange" stroke="orange" points="83.91,-440.19 79.63,-430.5 76.94,-440.75 83.91,-440.19"/>
</a>
</g>
<text text-anchor="start" x="173.5" y="-729.39" font-family="Helvetica,sans-Serif" font-size="10.00" fill="grey"> &lt; Return(Params...)</text>
<text text-anchor="middle" x="244.75" y="-718.14" font-family="Helvetica,sans-Serif" font-size="10.00" fill="grey"> const &amp;&amp;noexcept(IsNoexcept)&gt;</text>
</g>
<!-- Node4 -->
<g id="Node000004" class="node">
<title>Node4</title>
<g id="a_Node000004"><a xlink:href="../../dd/d81/structmimicpp_1_1signature__remove__noexcept_3_01_return_07_params_8_8_8_08_01const_01_6noexcept_07_is_noexcept_08_4.html" target="_top" xlink:title=" ">
<polygon fill="white" stroke="#666666" points="487.25,-669 350.5,-669 350.5,-616 487.25,-616 487.25,-669"/>
<text text-anchor="start" x="358.5" y="-655.5" font-family="Helvetica,sans-Serif" font-size="10.00">mimicpp::signature</text>
<text text-anchor="start" x="358.5" y="-644.25" font-family="Helvetica,sans-Serif" font-size="10.00">_remove_noexcept&lt; Return</text>
<text text-anchor="start" x="358.5" y="-633" font-family="Helvetica,sans-Serif" font-size="10.00">(Params...) const &amp;noexcept</text>
<text text-anchor="middle" x="418.88" y="-621.75" font-family="Helvetica,sans-Serif" font-size="10.00">(IsNoexcept)&gt;</text>
</a>
</g>
</g>
<!-- Node1&#45;&gt;Node4 -->
<g id="edge4_Node000001_Node000004" class="edge">
<title>Node1&#45;&gt;Node4</title>
<g id="a_edge4_Node000001_Node000004"><a xlink:title=" ">
<path fill="none" stroke="orange" stroke-dasharray="5,2" d="M85.07,-440.04C95.97,-479.77 122.25,-554.11 173.5,-592.5 224.36,-630.6 297.22,-641.45 350.13,-643.77"/>
<polygon fill="orange" stroke="orange" points="88.51,-439.39 82.6,-430.6 81.74,-441.16 88.51,-439.39"/>
</a>
</g>
<text text-anchor="start" x="176.88" y="-653.53" font-family="Helvetica,sans-Serif" font-size="10.00" fill="grey"> &lt; Return(Params...)</text>
<text text-anchor="middle" x="244.75" y="-642.28" font-family="Helvetica,sans-Serif" font-size="10.00" fill="grey"> const &amp;noexcept(IsNoexcept)&gt;</text>
</g>
<!-- Node5 -->
<g id="Node000005" class="node">
<title>Node5</title>
<g id="a_Node000005"><a xlink:href="../../d1/ddc/structmimicpp_1_1signature__remove__noexcept_3_01_return_07_params_8_8_8_08_01const_01noexcept_07_is_noexcept_08_4.html" target="_top" xlink:title=" ">
<polygon fill="white" stroke="#666666" points="486.12,-598 351.62,-598 351.62,-545 486.12,-545 486.12,-598"/>
<text text-anchor="start" x="359.62" y="-584.5" font-family="Helvetica,sans-Serif" font-size="10.00">mimicpp::signature</text>
<text text-anchor="start" x="359.62" y="-573.25" font-family="Helvetica,sans-Serif" font-size="10.00">_remove_noexcept&lt; Return</text>
<text text-anchor="start" x="359.62" y="-562" font-family="Helvetica,sans-Serif" font-size="10.00">(Params...) const noexcept</text>
<text text-anchor="middle" x="418.88" y="-550.75" font-family="Helvetica,sans-Serif" font-size="10.00">(IsNoexcept)&gt;</text>
</a>
</g>
</g>
<!-- Node1&#45;&gt;Node5 -->
<g id="edge5_Node000001_Node000005" class="edge">
<title>Node1&#45;&gt;Node5</title>
<g id="a_edge5_Node000001_Node000005"><a xlink:title=" ">
<path fill="none" stroke="orange" stroke-dasharray="5,2" d="M93.57,-438.67C109.87,-463.99 138.44,-502.12 173.5,-522.5 228.02,-554.19 299.68,-565.68 351.28,-569.7"/>
<polygon fill="orange" stroke="orange" points="96.61,-436.93 88.35,-430.3 90.67,-440.64 96.61,-436.93"/>
</a>
</g>
<text text-anchor="start" x="180.25" y="-578.66" font-family="Helvetica,sans-Serif" font-size="10.00" fill="grey"> &lt; Return(Params...)</text>
<text text-anchor="middle" x="244.75" y="-567.41" font-family="Helvetica,sans-Serif" font-size="10.00" fill="grey"> const noexcept(IsNoexcept)&gt;</text>
</g>
<!-- Node6 -->
<g id="Node000006" class="node">
<title>Node6</title>
<g id="a_Node000006"><a xlink:href="../../d5/df3/structmimicpp_1_1signature__remove__noexcept_3_01_return_07_params_8_8_8_08_01noexcept_07_is_noexcept_08_4.html" target="_top" xlink:title=" ">
<polygon fill="white" stroke="#666666" points="501.5,-527.38 336.25,-527.38 336.25,-485.62 501.5,-485.62 501.5,-527.38"/>
<text text-anchor="start" x="344.25" y="-513.88" font-family="Helvetica,sans-Serif" font-size="10.00">mimicpp::signature</text>
<text text-anchor="start" x="344.25" y="-502.62" font-family="Helvetica,sans-Serif" font-size="10.00">_remove_noexcept&lt; Return</text>
<text text-anchor="middle" x="418.88" y="-491.38" font-family="Helvetica,sans-Serif" font-size="10.00">(Params...) noexcept(IsNoexcept)&gt;</text>
</a>
</g>
</g>
<!-- Node1&#45;&gt;Node6 -->
<g id="edge6_Node000001_Node000006" class="edge">
<title>Node1&#45;&gt;Node6</title>
<g id="a_edge6_Node000001_Node000006"><a xlink:title=" ">
<path fill="none" stroke="orange" stroke-dasharray="5,2" d="M112.45,-435.1C130.02,-445.46 152.24,-457.17 173.5,-464.5 226,-482.6 287.64,-493.12 335.88,-499.11"/>
<polygon fill="orange" stroke="orange" points="114.35,-432.16 103.98,-429.99 110.73,-438.16 114.35,-432.16"/>
</a>
</g>
<text text-anchor="start" x="193.38" y="-508.73" font-family="Helvetica,sans-Serif" font-size="10.00" fill="grey"> &lt; Return(Params...)</text>
<text text-anchor="middle" x="244.75" y="-497.48" font-family="Helvetica,sans-Serif" font-size="10.00" fill="grey"> noexcept(IsNoexcept)&gt;</text>
</g>
<!-- Node7 -->
<g id="Node000007" class="node">
<title>Node7</title>
<g id="a_Node000007"><a xlink:href="../../d1/ddc/structmimicpp_1_1signature__remove__noexcept_3_01_return_07_params_8_8_8_08_6noexcept_07_is_noexcept_08_4.html" target="_top" xlink:title=" ">
<polygon fill="white" stroke="#666666" points="503.75,-467.38 334,-467.38 334,-425.62 503.75,-425.62 503.75,-467.38"/>
<text text-anchor="start" x="342" y="-453.88" font-family="Helvetica,sans-Serif" font-size="10.00">mimicpp::signature</text>
<text text-anchor="start" x="342" y="-442.62" font-family="Helvetica,sans-Serif" font-size="10.00">_remove_noexcept&lt; Return</text>
<text text-anchor="middle" x="418.88" y="-431.38" font-family="Helvetica,sans-Serif" font-size="10.00">(Params...)&amp;noexcept(IsNoexcept)&gt;</text>
</a>
</g>
</g>
<!-- Node1&#45;&gt;Node7 -->
<g id="edge7_Node000001_Node000007" class="edge">
<title>Node1&#45;&gt;Node7</title>
<g id="a_edge7_Node000001_Node000007"><a xlink:title=" ">
<path fill="none" stroke="orange" stroke-dasharray="5,2" d="M167.22,-423.84C169.33,-424.07 171.43,-424.29 173.5,-424.5 226.68,-429.98 286.45,-435.37 333.57,-439.45"/>
<polygon fill="orange" stroke="orange" points="167.6,-420.37 157.29,-422.77 166.85,-427.33 167.6,-420.37"/>
</a>
</g>
<text text-anchor="start" x="191.12" y="-450.62" font-family="Helvetica,sans-Serif" font-size="10.00" fill="grey"> &lt; Return(Params...)</text>
<text text-anchor="middle" x="244.75" y="-439.37" font-family="Helvetica,sans-Serif" font-size="10.00" fill="grey">&amp;noexcept(IsNoexcept)&gt;</text>
</g>
<!-- Node8 -->
<g id="Node000008" class="node">
<title>Node8</title>
<g id="a_Node000008"><a xlink:href="../../d0/dbd/structmimicpp_1_1signature__remove__noexcept_3_01_return_07_params_8_8_8_00_8_8_8_08_01_6_6noexcept_07_is_noexcept_08_4.html" target="_top" xlink:title=" ">
<polygon fill="white" stroke="#666666" points="486.12,-408 351.62,-408 351.62,-355 486.12,-355 486.12,-408"/>
<text text-anchor="start" x="359.62" y="-394.5" font-family="Helvetica,sans-Serif" font-size="10.00">mimicpp::signature</text>
<text text-anchor="start" x="359.62" y="-383.25" font-family="Helvetica,sans-Serif" font-size="10.00">_remove_noexcept&lt; Return</text>
<text text-anchor="start" x="359.62" y="-372" font-family="Helvetica,sans-Serif" font-size="10.00">(Params...,...) &amp;&amp;noexcept</text>
<text text-anchor="middle" x="418.88" y="-360.75" font-family="Helvetica,sans-Serif" font-size="10.00">(IsNoexcept)&gt;</text>
</a>
</g>
</g>
<!-- Node1&#45;&gt;Node8 -->
<g id="edge8_Node000001_Node000008" class="edge">
<title>Node1&#45;&gt;Node8</title>
<g id="a_edge8_Node000001_Node000008"><a xlink:title=" ">
<path fill="none" stroke="orange" stroke-dasharray="5,2" d="M167.21,-402.66C169.33,-402.43 171.43,-402.21 173.5,-402 233.54,-395.84 302.01,-390.22 351.17,-386.42"/>
<polygon fill="orange" stroke="orange" points="166.84,-399.18 157.28,-403.74 167.6,-406.14 166.84,-399.18"/>
</a>
</g>
<text text-anchor="start" x="181.75" y="-415" font-family="Helvetica,sans-Serif" font-size="10.00" fill="grey"> &lt; Return(Params...,</text>
<text text-anchor="middle" x="244.75" y="-403.75" font-family="Helvetica,sans-Serif" font-size="10.00" fill="grey">...) &amp;&amp;noexcept(IsNoexcept)&gt;</text>
</g>
<!-- Node9 -->
<g id="Node000009" class="node">
<title>Node9</title>
<g id="a_Node000009"><a xlink:href="../../d5/dcd/structmimicpp_1_1signature__remove__noexcept_3_01_return_07_params_8_8_8_00_8_8_8_08_01const_01_6_6noexcept_07_is_noexcept_08_4.html" target="_top" xlink:title=" ">
<polygon fill="white" stroke="#666666" points="495.5,-337 342.25,-337 342.25,-284 495.5,-284 495.5,-337"/>
<text text-anchor="start" x="350.25" y="-323.5" font-family="Helvetica,sans-Serif" font-size="10.00">mimicpp::signature</text>
<text text-anchor="start" x="350.25" y="-312.25" font-family="Helvetica,sans-Serif" font-size="10.00">_remove_noexcept&lt; Return</text>
<text text-anchor="start" x="350.25" y="-301" font-family="Helvetica,sans-Serif" font-size="10.00">(Params...,...) const &amp;&amp;noexcept</text>
<text text-anchor="middle" x="418.88" y="-289.75" font-family="Helvetica,sans-Serif" font-size="10.00">(IsNoexcept)&gt;</text>
</a>
</g>
</g>
<!-- Node1&#45;&gt;Node9 -->
<g id="edge9_Node000001_Node000009" class="edge">
<title>Node1&#45;&gt;Node9</title>
<g id="a_edge9_Node000001_Node000009"><a xlink:title=" ">
<path fill="none" stroke="orange" stroke-dasharray="5,2" d="M106.22,-391.22C124.29,-377.72 149.05,-361.3 173.5,-351.75 227.6,-330.62 292.6,-320.3 341.96,-315.27"/>
<polygon fill="orange" stroke="orange" points="104.43,-388.19 98.62,-397.05 108.69,-393.75 104.43,-388.19"/>
</a>
</g>
<text text-anchor="start" x="199.38" y="-376" font-family="Helvetica,sans-Serif" font-size="10.00" fill="grey"> &lt; Return(Params...,</text>
<text text-anchor="start" x="199.38" y="-364.75" font-family="Helvetica,sans-Serif" font-size="10.00" fill="grey">...) const &amp;&amp;noexcept</text>
<text text-anchor="middle" x="244.75" y="-353.5" font-family="Helvetica,sans-Serif" font-size="10.00" fill="grey">(IsNoexcept)&gt;</text>
</g>
<!-- Node10 -->
<g id="Node000010" class="node">
<title>Node10</title>
<g id="a_Node000010"><a xlink:href="../../da/dec/structmimicpp_1_1signature__remove__noexcept_3_01_return_07_params_8_8_8_00_8_8_8_08_01const_01_6noexcept_07_is_noexcept_08_4.html" target="_top" xlink:title=" ">
<polygon fill="white" stroke="#666666" points="492.12,-266 345.62,-266 345.62,-213 492.12,-213 492.12,-266"/>
<text text-anchor="start" x="353.62" y="-252.5" font-family="Helvetica,sans-Serif" font-size="10.00">mimicpp::signature</text>
<text text-anchor="start" x="353.62" y="-241.25" font-family="Helvetica,sans-Serif" font-size="10.00">_remove_noexcept&lt; Return</text>
<text text-anchor="start" x="353.62" y="-230" font-family="Helvetica,sans-Serif" font-size="10.00">(Params...,...) const &amp;noexcept</text>
<text text-anchor="middle" x="418.88" y="-218.75" font-family="Helvetica,sans-Serif" font-size="10.00">(IsNoexcept)&gt;</text>
</a>
</g>
</g>
<!-- Node1&#45;&gt;Node10 -->
<g id="edge10_Node000001_Node000010" class="edge">
<title>Node1&#45;&gt;Node10</title>
<g id="a_edge10_Node000001_Node000010"><a xlink:title=" ">
<path fill="none" stroke="orange" stroke-dasharray="5,2" d="M89.87,-387.55C104.4,-356.99 132.88,-307.18 173.5,-281.75 224.96,-249.54 293.87,-239.99 345.39,-237.92"/>
<polygon fill="orange" stroke="orange" points="86.76,-385.93 85.78,-396.48 93.13,-388.84 86.76,-385.93"/>
</a>
</g>
<text text-anchor="start" x="202" y="-306" font-family="Helvetica,sans-Serif" font-size="10.00" fill="grey"> &lt; Return(Params...,</text>
<text text-anchor="start" x="202" y="-294.75" font-family="Helvetica,sans-Serif" font-size="10.00" fill="grey">...) const &amp;noexcept</text>
<text text-anchor="middle" x="244.75" y="-283.5" font-family="Helvetica,sans-Serif" font-size="10.00" fill="grey">(IsNoexcept)&gt;</text>
</g>
<!-- Node11 -->
<g id="Node000011" class="node">
<title>Node11</title>
<g id="a_Node000011"><a xlink:href="../../d6/dfe/structmimicpp_1_1signature__remove__noexcept_3_01_return_07_params_8_8_8_00_8_8_8_08_01const_01noexcept_07_is_noexcept_08_4.html" target="_top" xlink:title=" ">
<polygon fill="white" stroke="#666666" points="488.75,-195 349,-195 349,-142 488.75,-142 488.75,-195"/>
<text text-anchor="start" x="357" y="-181.5" font-family="Helvetica,sans-Serif" font-size="10.00">mimicpp::signature</text>
<text text-anchor="start" x="357" y="-170.25" font-family="Helvetica,sans-Serif" font-size="10.00">_remove_noexcept&lt; Return</text>
<text text-anchor="start" x="357" y="-159" font-family="Helvetica,sans-Serif" font-size="10.00">(Params...,...) const noexcept</text>
<text text-anchor="middle" x="418.88" y="-147.75" font-family="Helvetica,sans-Serif" font-size="10.00">(IsNoexcept)&gt;</text>
</a>
</g>
</g>
<!-- Node1&#45;&gt;Node11 -->
<g id="edge11_Node000001_Node000011" class="edge">
<title>Node1&#45;&gt;Node11</title>
<g id="a_edge11_Node000001_Node000011"><a xlink:title=" ">
<path fill="none" stroke="orange" stroke-dasharray="5,2" d="M82.46,-386.55C90.3,-340.69 113.1,-248.08 173.5,-202.75 223.44,-165.27 295.73,-159.37 348.73,-161.23"/>
<polygon fill="orange" stroke="orange" points="79,-385.99 80.9,-396.41 85.91,-387.08 79,-385.99"/>
</a>
</g>
<text text-anchor="start" x="202" y="-227" font-family="Helvetica,sans-Serif" font-size="10.00" fill="grey"> &lt; Return(Params...,</text>
<text text-anchor="start" x="202" y="-215.75" font-family="Helvetica,sans-Serif" font-size="10.00" fill="grey">...) const noexcept</text>
<text text-anchor="middle" x="244.75" y="-204.5" font-family="Helvetica,sans-Serif" font-size="10.00" fill="grey">(IsNoexcept)&gt;</text>
</g>
<!-- Node12 -->
<g id="Node000012" class="node">
<title>Node12</title>
<g id="a_Node000012"><a xlink:href="../../dd/d41/structmimicpp_1_1signature__remove__noexcept_3_01_return_07_params_8_8_8_00_8_8_8_08_01noexcept_07_is_noexcept_08_4.html" target="_top" xlink:title=" ">
<polygon fill="white" stroke="#666666" points="486.12,-124 351.62,-124 351.62,-71 486.12,-71 486.12,-124"/>
<text text-anchor="start" x="359.62" y="-110.5" font-family="Helvetica,sans-Serif" font-size="10.00">mimicpp::signature</text>
<text text-anchor="start" x="359.62" y="-99.25" font-family="Helvetica,sans-Serif" font-size="10.00">_remove_noexcept&lt; Return</text>
<text text-anchor="start" x="359.62" y="-88" font-family="Helvetica,sans-Serif" font-size="10.00">(Params...,...) noexcept</text>
<text text-anchor="middle" x="418.88" y="-76.75" font-family="Helvetica,sans-Serif" font-size="10.00">(IsNoexcept)&gt;</text>
</a>
</g>
</g>
<!-- Node1&#45;&gt;Node12 -->
<g id="edge12_Node000001_Node000012" class="edge">
<title>Node1&#45;&gt;Node12</title>
<g id="a_edge12_Node000001_Node000012"><a xlink:title=" ">
<path fill="none" stroke="orange" stroke-dasharray="5,2" d="M79.24,-386.32C81.83,-329.84 96.35,-199.66 173.5,-135 222.52,-93.92 297.26,-87.95 351.18,-90.15"/>
<polygon fill="orange" stroke="orange" points="75.74,-386.18 78.88,-396.3 82.74,-386.43 75.74,-386.18"/>
</a>
</g>
<text text-anchor="start" x="188.5" y="-148" font-family="Helvetica,sans-Serif" font-size="10.00" fill="grey"> &lt; Return(Params...,</text>
<text text-anchor="middle" x="244.75" y="-136.75" font-family="Helvetica,sans-Serif" font-size="10.00" fill="grey">...) noexcept(IsNoexcept)&gt;</text>
</g>
<!-- Node13 -->
<g id="Node000013" class="node">
<title>Node13</title>
<g id="a_Node000013"><a xlink:href="../../df/deb/structmimicpp_1_1signature__remove__noexcept_3_01_return_07_params_8_8_8_00_8_8_8_08_6noexcept_07_is_noexcept_08_4.html" target="_top" xlink:title=" ">
<polygon fill="white" stroke="#666666" points="486.12,-53 351.62,-53 351.62,0 486.12,0 486.12,-53"/>
<text text-anchor="start" x="359.62" y="-39.5" font-family="Helvetica,sans-Serif" font-size="10.00">mimicpp::signature</text>
<text text-anchor="start" x="359.62" y="-28.25" font-family="Helvetica,sans-Serif" font-size="10.00">_remove_noexcept&lt; Return</text>
<text text-anchor="start" x="359.62" y="-17" font-family="Helvetica,sans-Serif" font-size="10.00">(Params...,...)&amp;noexcept</text>
<text text-anchor="middle" x="418.88" y="-5.75" font-family="Helvetica,sans-Serif" font-size="10.00">(IsNoexcept)&gt;</text>
</a>
</g>
</g>
<!-- Node1&#45;&gt;Node13 -->
<g id="edge13_Node000001_Node000013" class="edge">
<title>Node1&#45;&gt;Node13</title>
<g id="a_edge13_Node000001_Node000013"><a xlink:title=" ">
<path fill="none" stroke="orange" stroke-dasharray="5,2" d="M82.22,-386.77C92.4,-312.77 124.54,-107.74 173.5,-64 221.43,-21.18 296.91,-15.62 351.3,-18.39"/>
<polygon fill="orange" stroke="orange" points="78.8,-385.99 80.93,-396.37 85.73,-386.92 78.8,-385.99"/>
</a>
</g>
<text text-anchor="start" x="186.25" y="-77" font-family="Helvetica,sans-Serif" font-size="10.00" fill="grey"> &lt; Return(Params...,</text>
<text text-anchor="middle" x="244.75" y="-65.75" font-family="Helvetica,sans-Serif" font-size="10.00" fill="grey">...)&amp;noexcept(IsNoexcept)&gt;</text>
</g>
</g>
</svg>

<g id="navigator" transform="translate(0 0)" fill="#404254">
  <rect fill="#f2f5e9" fill-opacity="0.5" stroke="#606060" stroke-width=".5" x="0" y="0" width="60" height="60"/>
  <use id="zoomplus" xlink:href="#zoomPlus" x="17" y="9" onmousedown="handleZoom(evt,'in')"/>
  <use id="zoomminus" xlink:href="#zoomMin" x="42" y="9" onmousedown="handleZoom(evt,'out')"/>
  <use id="reset" xlink:href="#resetDef" x="30" y="36" onmousedown="handleReset()"/>
   <use id="arrowup" xlink:href="#arrowUp" x="0" y="0" onmousedown="handlePan(0,-1)"/>
  <use id="arrowright" xlink:href="#arrowRight" x="0" y="0" onmousedown="handlePan(1,0)"/>
  <use id="arrowdown" xlink:href="#arrowDown" x="0" y="0" onmousedown="handlePan(0,1)"/>
  <use id="arrowleft" xlink:href="#arrowLeft" x="0" y="0" onmousedown="handlePan(-1,0)"/>
</g>
<svg viewBox="0 0 15 15" width="100%" height="30px" preserveAspectRatio="xMaxYMin meet">
 <g id="arrow_out" transform="scale(0.3 0.3)">
  <a xlink:href="structmimicpp_1_1signature__remove__noexcept__inherit__graph_org.svg" target="_base">
   <rect id="button" ry="5" rx="5" y="6" x="6" height="38" width="38"
        fill="#f2f5e9" fill-opacity="0.5" stroke="#606060" stroke-width="1.0"/>
   <path id="arrow"
     d="M 11.500037,31.436501 C 11.940474,20.09759 22.043105,11.32322 32.158766,21.979434 L 37.068811,17.246167 C 37.068811,17.246167 37.088388,32 37.088388,32 L 22.160133,31.978069 C 22.160133,31.978069 26.997745,27.140456 26.997745,27.140456 C 18.528582,18.264221 13.291696,25.230495 11.500037,31.436501 z"
     style="fill:#404040;"/>
  </a>
 </g>
</svg>

<style type='text/css'>
<![CDATA[
[data-mouse-over-selected='false'] { opacity: 0.7; }
[data-mouse-over-selected='true']  { opacity: 1.0; }
]]>
</style>
<script type="application/ecmascript"><![CDATA[
document.addEventListener('DOMContentLoaded', (event) => {
  highlightEdges();
  highlightAdjacentNodes();
});
]]></script>
</svg>
