<?xml version="1.0" encoding="UTF-8" standalone="no"?>
<!DOCTYPE svg PUBLIC "-//W3C//DTD SVG 1.1//EN"
 "http://www.w3.org/Graphics/SVG/1.1/DTD/svg11.dtd">
<!-- Generated by graphviz version 12.2.1 (20241206.2353)
 -->
<!-- Title: mimicpp::signature_remove_noexcept&lt; Signature &gt; Pages: 1 -->
<!--zoomable 824 -->

<svg id="main" version="1.1" xmlns="http://www.w3.org/2000/svg" xmlns:xlink="http://www.w3.org/1999/xlink" xml:space="preserve" onload="init(evt)">

<style type="text/css"><![CDATA[
.node, .edge {opacity: 0.7;}
.node.selected, .edge.selected {opacity: 1;}
.edge:hover path { stroke: red; }
.edge:hover polygon { stroke: red; fill: red; }
]]></style>

<defs>
  <circle id="rim" cx="0" cy="0" r="7"/>
  <circle id="rim2" cx="0" cy="0" r="3.5"/>
  <g id="zoomPlus">
    <use xlink:href="#rim" fill="#404040"><set attributeName="fill" to="#808080" begin="zoomplus.mouseover" end="zoomplus.mouseout"/></use>
    <path d="M-4,0h8M0,-4v8" fill="none" stroke="white" stroke-width="1.5" pointer-events="none"/>
  </g>
  <g id="zoomMin">
    <use xlink:href="#rim" fill="#404040"><set attributeName="fill" to="#808080" begin="zoomminus.mouseover" end="zoomminus.mouseout"/></use>
    <path d="M-4,0h8" fill="none" stroke="white" stroke-width="1.5" pointer-events="none"/>
  </g>
  <g id="arrowUp" transform="translate(30 24)">
    <use xlink:href="#rim"/>
    <path pointer-events="none" fill="none" stroke="white" stroke-width="1.5" d="M0,-3.0v7 M-2.5,-0.5L0,-3.0L2.5,-0.5"/>
  </g>
  <g id="arrowRight" transform="rotate(90) translate(36 -43)">
    <use xlink:href="#rim"/>
    <path pointer-events="none" fill="none" stroke="white" stroke-width="1.5" d="M0,-3.0v7 M-2.5,-0.5L0,-3.0L2.5,-0.5"/>
  </g>
  <g id="arrowDown" transform="rotate(180) translate(-30 -48)">
    <use xlink:href="#rim"/>
    <path pointer-events="none" fill="none" stroke="white" stroke-width="1.5" d="M0,-3.0v7 M-2.5,-0.5L0,-3.0L2.5,-0.5"/>
  </g>
  <g id="arrowLeft" transform="rotate(270) translate(-36 17)">
    <use xlink:href="#rim"/>
    <path pointer-events="none" fill="none" stroke="white" stroke-width="1.5" d="M0,-3.0v7 M-2.5,-0.5L0,-3.0L2.5,-0.5"/>
  </g>
  <g id="resetDef">
    <use xlink:href="#rim2" fill="#404040"><set attributeName="fill" to="#808080" begin="reset.mouseover" end="reset.mouseout"/></use>
  </g>
</defs>
<script type="application/ecmascript">
var viewWidth = 514;
var viewHeight = 824;
var sectionId = 'dynsection-0';
</script>
<script type="application/ecmascript" xlink:href="../../svg.min.js"/>
<svg id="graph" class="graph">
<g id="viewport">
<title>mimicpp::signature_remove_noexcept&lt; Signature &gt;</title>
<!-- Node1 -->
<g id="Node000001" class="node">
<title>Node1</title>
<g id="a_Node000001"><a xlink:title="Primary template, purposely undefined.">
<polygon fill="#999999" stroke="#666666" points="155.5,-428.75 0,-428.75 0,-398.25 155.5,-398.25 155.5,-428.75"/>
<text text-anchor="start" x="8" y="-415.25" font-family="Helvetica,sans-Serif" font-size="10.00">mimicpp::signature</text>
<text text-anchor="middle" x="77.75" y="-404" font-family="Helvetica,sans-Serif" font-size="10.00">_remove_noexcept&lt; Signature &gt;</text>
</a>
</g>
</g>
<!-- Node1&#45;&gt;Node1 -->
<g id="edge1_Node000001_Node000001" class="edge">
<title>Node1&#45;&gt;Node1</title>
<g id="a_edge1_Node000001_Node000001"><a xlink:title=" ">
<path fill="none" stroke="orange" stroke-dasharray="5,2" d="M63.75,-440.45C66.04,-444.22 70.7,-446.75 77.75,-446.75 90.63,-446.75 95.57,-438.31 92.55,-429.24"/>
<polygon fill="orange" stroke="orange" points="67.26,-440.47 63.06,-430.75 60.27,-440.97 67.26,-440.47"/>
</a>
</g>
<text text-anchor="middle" x="77.75" y="-448.5" font-family="Helvetica,sans-Serif" font-size="10.00" fill="grey"> &lt; Signature &gt;</text>
</g>
<!-- Node1&#45;&gt;Node1 -->
<g id="edge14_Node000001_Node000001" class="edge">
<title>Node1&#45;&gt;Node1</title>
<g id="a_edge14_Node000001_Node000001"><a xlink:title=" ">
<path fill="none" stroke="orange" stroke-dasharray="5,2" d="M47.77,-438.72C42.58,-452.33 52.57,-464.75 77.75,-464.75 108.74,-464.75 116.72,-445.93 101.72,-429.24"/>
<polygon fill="orange" stroke="orange" points="50.57,-440.84 52.97,-430.52 44.66,-437.08 50.57,-440.84"/>
</a>
</g>
<text text-anchor="middle" x="77.75" y="-466.5" font-family="Helvetica,sans-Serif" font-size="10.00" fill="grey"> &lt; Signature &gt;</text>
</g>
<!-- Node2 -->
<g id="Node000002" class="node">
<title>Node2</title>
<g id="a_Node000002"><a xlink:href="../../d5/dee/structmimicpp_1_1signature__remove__noexcept_3_01_return_07_params_8_8_8_08_01_6_6noexcept_07_is_noexcept_08_4.html" target="_top" xlink:title=" ">
<polygon fill="white" stroke="#666666" points="487.25,-810 352.75,-810 352.75,-757 487.25,-757 487.25,-810"/>
<text text-anchor="start" x="360.75" y="-796.5" font-family="Helvetica,sans-Serif" font-size="10.00">mimicpp::signature</text>
<text text-anchor="start" x="360.75" y="-785.25" font-family="Helvetica,sans-Serif" font-size="10.00">_remove_noexcept&lt; Return</text>
<text text-anchor="start" x="360.75" y="-774" font-family="Helvetica,sans-Serif" font-size="10.00">(Params...) &amp;&amp;noexcept</text>
<text text-anchor="middle" x="420" y="-762.75" font-family="Helvetica,sans-Serif" font-size="10.00">(IsNoexcept)&gt;</text>
</a>
</g>
</g>
<!-- Node1&#45;&gt;Node2 -->
<g id="edge2_Node000001_Node000002" class="edge">
<title>Node1&#45;&gt;Node2</title>
<g id="a_edge2_Node000001_Node000002"><a xlink:title=" ">
<path fill="none" stroke="orange" stroke-dasharray="5,2" d="M82.49,-440.17C93.14,-512.22 125.99,-708.1 173.5,-749.5 222.08,-791.83 297.83,-796.27 352.34,-792.67"/>
<polygon fill="orange" stroke="orange" points="85.98,-439.86 81.08,-430.46 79.05,-440.86 85.98,-439.86"/>
</a>
</g>
<text text-anchor="start" x="186.62" y="-806.58" font-family="Helvetica,sans-Serif" font-size="10.00" fill="grey"> &lt; Return(Params...)</text>
<text text-anchor="middle" x="244.75" y="-795.33" font-family="Helvetica,sans-Serif" font-size="10.00" fill="grey"> &amp;&amp;noexcept(IsNoexcept)&gt;</text>
</g>
<!-- Node3 -->
<g id="Node000003" class="node">
<title>Node3</title>
<g id="a_Node000003"><a xlink:href="../../dd/df2/structmimicpp_1_1signature__remove__noexcept_3_01_return_07_params_8_8_8_08_01_6noexcept_07_is_noexcept_08_4.html" target="_top" xlink:title=" ">
<polygon fill="white" stroke="#666666" points="506,-739.38 334,-739.38 334,-697.62 506,-697.62 506,-739.38"/>
<text text-anchor="start" x="342" y="-725.88" font-family="Helvetica,sans-Serif" font-size="10.00">mimicpp::signature</text>
<text text-anchor="start" x="342" y="-714.62" font-family="Helvetica,sans-Serif" font-size="10.00">_remove_noexcept&lt; Return</text>
<text text-anchor="middle" x="420" y="-703.38" font-family="Helvetica,sans-Serif" font-size="10.00">(Params...) &amp;noexcept(IsNoexcept)&gt;</text>
</a>
</g>
</g>
<!-- Node1&#45;&gt;Node3 -->
<g id="edge3_Node000001_Node000003" class="edge">
<title>Node1&#45;&gt;Node3</title>
<g id="a_edge3_Node000001_Node000003"><a xlink:title=" ">
<path fill="none" stroke="orange" stroke-dasharray="5,2" d="M80,-440.47C84.05,-494.22 101.17,-614.75 173.5,-675.5 217.49,-712.44 281.87,-722.63 333.67,-723.89"/>
<polygon fill="orange" stroke="orange" points="83.51,-440.45 79.37,-430.69 76.53,-440.9 83.51,-440.45"/>
</a>
</g>
<text text-anchor="start" x="190" y="-736.09" font-family="Helvetica,sans-Serif" font-size="10.00" fill="grey"> &lt; Return(Params...)</text>
<text text-anchor="middle" x="244.75" y="-724.84" font-family="Helvetica,sans-Serif" font-size="10.00" fill="grey"> &amp;noexcept(IsNoexcept)&gt;</text>
</g>
<!-- Node4 -->
<g id="Node000004" class="node">
<title>Node4</title>
<g id="a_Node000004"><a xlink:href="../../d4/d59/structmimicpp_1_1signature__remove__noexcept_3_01_return_07_params_8_8_8_08_01const_01_6_6noexcept_07_is_noexcept_08_4.html" target="_top" xlink:title=" ">
<polygon fill="white" stroke="#666666" points="491.75,-680 348.25,-680 348.25,-627 491.75,-627 491.75,-680"/>
<text text-anchor="start" x="356.25" y="-666.5" font-family="Helvetica,sans-Serif" font-size="10.00">mimicpp::signature</text>
<text text-anchor="start" x="356.25" y="-655.25" font-family="Helvetica,sans-Serif" font-size="10.00">_remove_noexcept&lt; Return</text>
<text text-anchor="start" x="356.25" y="-644" font-family="Helvetica,sans-Serif" font-size="10.00">(Params...) const &amp;&amp;noexcept</text>
<text text-anchor="middle" x="420" y="-632.75" font-family="Helvetica,sans-Serif" font-size="10.00">(IsNoexcept)&gt;</text>
</a>
</g>
</g>
<!-- Node1&#45;&gt;Node4 -->
<g id="edge4_Node000001_Node000004" class="edge">
<title>Node1&#45;&gt;Node4</title>
<g id="a_edge4_Node000001_Node000004"><a xlink:title=" ">
<path fill="none" stroke="orange" stroke-dasharray="5,2" d="M84.73,-440.18C95.3,-480.9 121.29,-558.07 173.5,-598.5 223.32,-637.08 294.94,-649.64 347.98,-653.26"/>
<polygon fill="orange" stroke="orange" points="88.14,-439.37 82.35,-430.5 81.34,-441.05 88.14,-439.37"/>
</a>
</g>
<text text-anchor="start" x="173.5" y="-662.41" font-family="Helvetica,sans-Serif" font-size="10.00" fill="grey"> &lt; Return(Params...)</text>
<text text-anchor="middle" x="244.75" y="-651.16" font-family="Helvetica,sans-Serif" font-size="10.00" fill="grey"> const &amp;&amp;noexcept(IsNoexcept)&gt;</text>
</g>
<!-- Node5 -->
<g id="Node000005" class="node">
<title>Node5</title>
<g id="a_Node000005"><a xlink:href="../../dd/d81/structmimicpp_1_1signature__remove__noexcept_3_01_return_07_params_8_8_8_08_01const_01_6noexcept_07_is_noexcept_08_4.html" target="_top" xlink:title=" ">
<polygon fill="white" stroke="#666666" points="488.38,-609 351.62,-609 351.62,-556 488.38,-556 488.38,-609"/>
<text text-anchor="start" x="359.62" y="-595.5" font-family="Helvetica,sans-Serif" font-size="10.00">mimicpp::signature</text>
<text text-anchor="start" x="359.62" y="-584.25" font-family="Helvetica,sans-Serif" font-size="10.00">_remove_noexcept&lt; Return</text>
<text text-anchor="start" x="359.62" y="-573" font-family="Helvetica,sans-Serif" font-size="10.00">(Params...) const &amp;noexcept</text>
<text text-anchor="middle" x="420" y="-561.75" font-family="Helvetica,sans-Serif" font-size="10.00">(IsNoexcept)&gt;</text>
</a>
</g>
</g>
<!-- Node1&#45;&gt;Node5 -->
<g id="edge5_Node000001_Node000005" class="edge">
<title>Node1&#45;&gt;Node5</title>
<g id="a_edge5_Node000001_Node000005"><a xlink:title=" ">
<path fill="none" stroke="orange" stroke-dasharray="5,2" d="M93.61,-438.89C109.93,-464.48 138.53,-503.15 173.5,-524.5 227.7,-557.59 299.26,-571.8 351.13,-577.91"/>
<polygon fill="orange" stroke="orange" points="96.61,-437.09 88.37,-430.42 90.66,-440.77 96.61,-437.09"/>
</a>
</g>
<text text-anchor="start" x="176.88" y="-585.49" font-family="Helvetica,sans-Serif" font-size="10.00" fill="grey"> &lt; Return(Params...)</text>
<text text-anchor="middle" x="244.75" y="-574.24" font-family="Helvetica,sans-Serif" font-size="10.00" fill="grey"> const &amp;noexcept(IsNoexcept)&gt;</text>
</g>
<!-- Node6 -->
<g id="Node000006" class="node">
<title>Node6</title>
<g id="a_Node000006"><a xlink:href="../../d1/ddc/structmimicpp_1_1signature__remove__noexcept_3_01_return_07_params_8_8_8_08_01const_01noexcept_07_is_noexcept_08_4.html" target="_top" xlink:title=" ">
<polygon fill="white" stroke="#666666" points="487.25,-538 352.75,-538 352.75,-485 487.25,-485 487.25,-538"/>
<text text-anchor="start" x="360.75" y="-524.5" font-family="Helvetica,sans-Serif" font-size="10.00">mimicpp::signature</text>
<text text-anchor="start" x="360.75" y="-513.25" font-family="Helvetica,sans-Serif" font-size="10.00">_remove_noexcept&lt; Return</text>
<text text-anchor="start" x="360.75" y="-502" font-family="Helvetica,sans-Serif" font-size="10.00">(Params...) const noexcept</text>
<text text-anchor="middle" x="420" y="-490.75" font-family="Helvetica,sans-Serif" font-size="10.00">(IsNoexcept)&gt;</text>
</a>
</g>
</g>
<!-- Node1&#45;&gt;Node6 -->
<g id="edge6_Node000001_Node000006" class="edge">
<title>Node1&#45;&gt;Node6</title>
<g id="a_edge6_Node000001_Node000006"><a xlink:title=" ">
<path fill="none" stroke="orange" stroke-dasharray="5,2" d="M112.51,-434.94C130.1,-445.24 152.31,-456.97 173.5,-464.5 232.18,-485.35 302.21,-497.6 352.43,-504.33"/>
<polygon fill="orange" stroke="orange" points="114.41,-431.99 104.03,-429.85 110.81,-437.99 114.41,-431.99"/>
</a>
</g>
<text text-anchor="start" x="180.25" y="-511.18" font-family="Helvetica,sans-Serif" font-size="10.00" fill="grey"> &lt; Return(Params...)</text>
<text text-anchor="middle" x="244.75" y="-499.93" font-family="Helvetica,sans-Serif" font-size="10.00" fill="grey"> const noexcept(IsNoexcept)&gt;</text>
</g>
<!-- Node7 -->
<g id="Node000007" class="node">
<title>Node7</title>
<g id="a_Node000007"><a xlink:href="../../d5/df3/structmimicpp_1_1signature__remove__noexcept_3_01_return_07_params_8_8_8_08_01noexcept_07_is_noexcept_08_4.html" target="_top" xlink:title=" ">
<polygon fill="white" stroke="#666666" points="502.62,-467.38 337.38,-467.38 337.38,-425.62 502.62,-425.62 502.62,-467.38"/>
<text text-anchor="start" x="345.38" y="-453.88" font-family="Helvetica,sans-Serif" font-size="10.00">mimicpp::signature</text>
<text text-anchor="start" x="345.38" y="-442.62" font-family="Helvetica,sans-Serif" font-size="10.00">_remove_noexcept&lt; Return</text>
<text text-anchor="middle" x="420" y="-431.38" font-family="Helvetica,sans-Serif" font-size="10.00">(Params...) noexcept(IsNoexcept)&gt;</text>
</a>
</g>
</g>
<!-- Node1&#45;&gt;Node7 -->
<g id="edge7_Node000001_Node000007" class="edge">
<title>Node1&#45;&gt;Node7</title>
<g id="a_edge7_Node000001_Node000007"><a xlink:title=" ">
<path fill="none" stroke="orange" stroke-dasharray="5,2" d="M167.22,-423.84C169.33,-424.07 171.43,-424.29 173.5,-424.5 227.99,-430.1 289.36,-435.6 337.12,-439.7"/>
<polygon fill="orange" stroke="orange" points="167.6,-420.37 157.29,-422.78 166.85,-427.33 167.6,-420.37"/>
</a>
</g>
<text text-anchor="start" x="193.38" y="-450.63" font-family="Helvetica,sans-Serif" font-size="10.00" fill="grey"> &lt; Return(Params...)</text>
<text text-anchor="middle" x="244.75" y="-439.38" font-family="Helvetica,sans-Serif" font-size="10.00" fill="grey"> noexcept(IsNoexcept)&gt;</text>
</g>
<!-- Node8 -->
<g id="Node000008" class="node">
<title>Node8</title>
<g id="a_Node000008"><a xlink:href="../../d0/dbd/structmimicpp_1_1signature__remove__noexcept_3_01_return_07_params_8_8_8_00_8_8_8_08_01_6_6noexcept_07_is_noexcept_08_4.html" target="_top" xlink:title=" ">
<polygon fill="white" stroke="#666666" points="487.25,-408 352.75,-408 352.75,-355 487.25,-355 487.25,-408"/>
<text text-anchor="start" x="360.75" y="-394.5" font-family="Helvetica,sans-Serif" font-size="10.00">mimicpp::signature</text>
<text text-anchor="start" x="360.75" y="-383.25" font-family="Helvetica,sans-Serif" font-size="10.00">_remove_noexcept&lt; Return</text>
<text text-anchor="start" x="360.75" y="-372" font-family="Helvetica,sans-Serif" font-size="10.00">(Params...,...) &amp;&amp;noexcept</text>
<text text-anchor="middle" x="420" y="-360.75" font-family="Helvetica,sans-Serif" font-size="10.00">(IsNoexcept)&gt;</text>
</a>
</g>
</g>
<!-- Node1&#45;&gt;Node8 -->
<g id="edge8_Node000001_Node000008" class="edge">
<title>Node1&#45;&gt;Node8</title>
<g id="a_edge8_Node000001_Node000008"><a xlink:title=" ">
<path fill="none" stroke="orange" stroke-dasharray="5,2" d="M167.21,-402.66C169.33,-402.43 171.43,-402.21 173.5,-402 233.92,-395.81 302.84,-390.18 352.25,-386.39"/>
<polygon fill="orange" stroke="orange" points="166.84,-399.18 157.28,-403.74 167.6,-406.14 166.84,-399.18"/>
</a>
</g>
<text text-anchor="start" x="181.75" y="-415" font-family="Helvetica,sans-Serif" font-size="10.00" fill="grey"> &lt; Return(Params...,</text>
<text text-anchor="middle" x="244.75" y="-403.75" font-family="Helvetica,sans-Serif" font-size="10.00" fill="grey">...) &amp;&amp;noexcept(IsNoexcept)&gt;</text>
</g>
<!-- Node9 -->
<g id="Node000009" class="node">
<title>Node9</title>
<g id="a_Node000009"><a xlink:href="../../d7/d51/structmimicpp_1_1signature__remove__noexcept_3_01_return_07_params_8_8_8_00_8_8_8_08_01_6noexcept_07_is_noexcept_08_4.html" target="_top" xlink:title=" ">
<polygon fill="white" stroke="#666666" points="487.25,-337 352.75,-337 352.75,-284 487.25,-284 487.25,-337"/>
<text text-anchor="start" x="360.75" y="-323.5" font-family="Helvetica,sans-Serif" font-size="10.00">mimicpp::signature</text>
<text text-anchor="start" x="360.75" y="-312.25" font-family="Helvetica,sans-Serif" font-size="10.00">_remove_noexcept&lt; Return</text>
<text text-anchor="start" x="360.75" y="-301" font-family="Helvetica,sans-Serif" font-size="10.00">(Params...,...) &amp;noexcept</text>
<text text-anchor="middle" x="420" y="-289.75" font-family="Helvetica,sans-Serif" font-size="10.00">(IsNoexcept)&gt;</text>
</a>
</g>
</g>
<!-- Node1&#45;&gt;Node9 -->
<g id="edge9_Node000001_Node000009" class="edge">
<title>Node1&#45;&gt;Node9</title>
<g id="a_edge9_Node000001_Node000009"><a xlink:title=" ">
<path fill="none" stroke="orange" stroke-dasharray="5,2" d="M113.34,-392.05C130.84,-382 152.72,-370.59 173.5,-363 232.25,-341.54 302.27,-327.65 352.47,-319.57"/>
<polygon fill="orange" stroke="orange" points="111.75,-388.93 104.9,-397.01 115.29,-394.97 111.75,-388.93"/>
</a>
</g>
<text text-anchor="start" x="185.12" y="-376" font-family="Helvetica,sans-Serif" font-size="10.00" fill="grey"> &lt; Return(Params...,</text>
<text text-anchor="middle" x="244.75" y="-364.75" font-family="Helvetica,sans-Serif" font-size="10.00" fill="grey">...) &amp;noexcept(IsNoexcept)&gt;</text>
</g>
<!-- Node10 -->
<g id="Node000010" class="node">
<title>Node10</title>
<g id="a_Node000010"><a xlink:href="../../d5/dcd/structmimicpp_1_1signature__remove__noexcept_3_01_return_07_params_8_8_8_00_8_8_8_08_01const_01_6_6noexcept_07_is_noexcept_08_4.html" target="_top" xlink:title=" ">
<polygon fill="white" stroke="#666666" points="496.62,-266 343.38,-266 343.38,-213 496.62,-213 496.62,-266"/>
<text text-anchor="start" x="351.38" y="-252.5" font-family="Helvetica,sans-Serif" font-size="10.00">mimicpp::signature</text>
<text text-anchor="start" x="351.38" y="-241.25" font-family="Helvetica,sans-Serif" font-size="10.00">_remove_noexcept&lt; Return</text>
<text text-anchor="start" x="351.38" y="-230" font-family="Helvetica,sans-Serif" font-size="10.00">(Params...,...) const &amp;&amp;noexcept</text>
<text text-anchor="middle" x="420" y="-218.75" font-family="Helvetica,sans-Serif" font-size="10.00">(IsNoexcept)&gt;</text>
</a>
</g>
</g>
<!-- Node1&#45;&gt;Node10 -->
<g id="edge10_Node000001_Node000010" class="edge">
<title>Node1&#45;&gt;Node10</title>
<g id="a_edge10_Node000001_Node000010"><a xlink:title=" ">
<path fill="none" stroke="orange" stroke-dasharray="5,2" d="M91.03,-387.8C106.21,-358.93 134.87,-312.95 173.5,-288.75 224.34,-256.9 291.71,-245.08 343.01,-240.95"/>
<polygon fill="orange" stroke="orange" points="87.97,-386.09 86.56,-396.6 94.21,-389.26 87.97,-386.09"/>
</a>
</g>
<text text-anchor="start" x="199.38" y="-313" font-family="Helvetica,sans-Serif" font-size="10.00" fill="grey"> &lt; Return(Params...,</text>
<text text-anchor="start" x="199.38" y="-301.75" font-family="Helvetica,sans-Serif" font-size="10.00" fill="grey">...) const &amp;&amp;noexcept</text>
<text text-anchor="middle" x="244.75" y="-290.5" font-family="Helvetica,sans-Serif" font-size="10.00" fill="grey">(IsNoexcept)&gt;</text>
</g>
<!-- Node11 -->
<g id="Node000011" class="node">
<title>Node11</title>
<g id="a_Node000011"><a xlink:href="../../da/dec/structmimicpp_1_1signature__remove__noexcept_3_01_return_07_params_8_8_8_00_8_8_8_08_01const_01_6noexcept_07_is_noexcept_08_4.html" target="_top" xlink:title=" ">
<polygon fill="white" stroke="#666666" points="493.25,-195 346.75,-195 346.75,-142 493.25,-142 493.25,-195"/>
<text text-anchor="start" x="354.75" y="-181.5" font-family="Helvetica,sans-Serif" font-size="10.00">mimicpp::signature</text>
<text text-anchor="start" x="354.75" y="-170.25" font-family="Helvetica,sans-Serif" font-size="10.00">_remove_noexcept&lt; Return</text>
<text text-anchor="start" x="354.75" y="-159" font-family="Helvetica,sans-Serif" font-size="10.00">(Params...,...) const &amp;noexcept</text>
<text text-anchor="middle" x="420" y="-147.75" font-family="Helvetica,sans-Serif" font-size="10.00">(IsNoexcept)&gt;</text>
</a>
</g>
</g>
<!-- Node1&#45;&gt;Node11 -->
<g id="edge11_Node000001_Node000011" class="edge">
<title>Node1&#45;&gt;Node11</title>
<g id="a_edge11_Node000001_Node000011"><a xlink:title=" ">
<path fill="none" stroke="orange" stroke-dasharray="5,2" d="M82.75,-386.81C91.01,-341.84 114.38,-251.49 173.5,-206.75 222.69,-169.53 293.53,-161.95 346.48,-162.52"/>
<polygon fill="orange" stroke="orange" points="79.34,-386.03 81.1,-396.48 86.24,-387.21 79.34,-386.03"/>
</a>
</g>
<text text-anchor="start" x="202" y="-231" font-family="Helvetica,sans-Serif" font-size="10.00" fill="grey"> &lt; Return(Params...,</text>
<text text-anchor="start" x="202" y="-219.75" font-family="Helvetica,sans-Serif" font-size="10.00" fill="grey">...) const &amp;noexcept</text>
<text text-anchor="middle" x="244.75" y="-208.5" font-family="Helvetica,sans-Serif" font-size="10.00" fill="grey">(IsNoexcept)&gt;</text>
</g>
<!-- Node12 -->
<g id="Node000012" class="node">
<title>Node12</title>
<g id="a_Node000012"><a xlink:href="../../d6/dfe/structmimicpp_1_1signature__remove__noexcept_3_01_return_07_params_8_8_8_00_8_8_8_08_01const_01noexcept_07_is_noexcept_08_4.html" target="_top" xlink:title=" ">
<polygon fill="white" stroke="#666666" points="489.88,-124 350.12,-124 350.12,-71 489.88,-71 489.88,-124"/>
<text text-anchor="start" x="358.12" y="-110.5" font-family="Helvetica,sans-Serif" font-size="10.00">mimicpp::signature</text>
<text text-anchor="start" x="358.12" y="-99.25" font-family="Helvetica,sans-Serif" font-size="10.00">_remove_noexcept&lt; Return</text>
<text text-anchor="start" x="358.12" y="-88" font-family="Helvetica,sans-Serif" font-size="10.00">(Params...,...) const noexcept</text>
<text text-anchor="middle" x="420" y="-76.75" font-family="Helvetica,sans-Serif" font-size="10.00">(IsNoexcept)&gt;</text>
</a>
</g>
</g>
<!-- Node1&#45;&gt;Node12 -->
<g id="edge12_Node000001_Node000012" class="edge">
<title>Node1&#45;&gt;Node12</title>
<g id="a_edge12_Node000001_Node000012"><a xlink:title=" ">
<path fill="none" stroke="orange" stroke-dasharray="5,2" d="M78.69,-386.4C80.18,-328.29 92.58,-191.67 173.5,-125.75 222.31,-85.98 295.83,-82.53 349.7,-86.82"/>
<polygon fill="orange" stroke="orange" points="75.2,-386.3 78.54,-396.35 82.19,-386.4 75.2,-386.3"/>
</a>
</g>
<text text-anchor="start" x="202" y="-150" font-family="Helvetica,sans-Serif" font-size="10.00" fill="grey"> &lt; Return(Params...,</text>
<text text-anchor="start" x="202" y="-138.75" font-family="Helvetica,sans-Serif" font-size="10.00" fill="grey">...) const noexcept</text>
<text text-anchor="middle" x="244.75" y="-127.5" font-family="Helvetica,sans-Serif" font-size="10.00" fill="grey">(IsNoexcept)&gt;</text>
</g>
<!-- Node13 -->
<g id="Node000013" class="node">
<title>Node13</title>
<g id="a_Node000013"><a xlink:href="../../dd/d41/structmimicpp_1_1signature__remove__noexcept_3_01_return_07_params_8_8_8_00_8_8_8_08_01noexcept_07_is_noexcept_08_4.html" target="_top" xlink:title=" ">
<polygon fill="white" stroke="#666666" points="487.25,-53 352.75,-53 352.75,0 487.25,0 487.25,-53"/>
<text text-anchor="start" x="360.75" y="-39.5" font-family="Helvetica,sans-Serif" font-size="10.00">mimicpp::signature</text>
<text text-anchor="start" x="360.75" y="-28.25" font-family="Helvetica,sans-Serif" font-size="10.00">_remove_noexcept&lt; Return</text>
<text text-anchor="start" x="360.75" y="-17" font-family="Helvetica,sans-Serif" font-size="10.00">(Params...,...) noexcept</text>
<text text-anchor="middle" x="420" y="-5.75" font-family="Helvetica,sans-Serif" font-size="10.00">(IsNoexcept)&gt;</text>
</a>
</g>
</g>
<!-- Node1&#45;&gt;Node13 -->
<g id="edge13_Node000001_Node000013" class="edge">
<title>Node1&#45;&gt;Node13</title>
<g id="a_edge13_Node000001_Node000013"><a xlink:title=" ">
<path fill="none" stroke="orange" stroke-dasharray="5,2" d="M82.05,-386.85C91.88,-312.1 123.4,-103 173.5,-59 221.96,-16.45 297.91,-12.6 352.51,-16.71"/>
<polygon fill="orange" stroke="orange" points="78.61,-386.17 80.81,-396.54 85.55,-387.06 78.61,-386.17"/>
</a>
</g>
<text text-anchor="start" x="188.5" y="-72" font-family="Helvetica,sans-Serif" font-size="10.00" fill="grey"> &lt; Return(Params...,</text>
<text text-anchor="middle" x="244.75" y="-60.75" font-family="Helvetica,sans-Serif" font-size="10.00" fill="grey">...) noexcept(IsNoexcept)&gt;</text>
</g>
</g>
</svg>

<g id="navigator" transform="translate(0 0)" fill="#404254">
  <rect fill="#f2f5e9" fill-opacity="0.5" stroke="#606060" stroke-width=".5" x="0" y="0" width="60" height="60"/>
  <use id="zoomplus" xlink:href="#zoomPlus" x="17" y="9" onmousedown="handleZoom(evt,'in')"/>
  <use id="zoomminus" xlink:href="#zoomMin" x="42" y="9" onmousedown="handleZoom(evt,'out')"/>
  <use id="reset" xlink:href="#resetDef" x="30" y="36" onmousedown="handleReset()"/>
   <use id="arrowup" xlink:href="#arrowUp" x="0" y="0" onmousedown="handlePan(0,-1)"/>
  <use id="arrowright" xlink:href="#arrowRight" x="0" y="0" onmousedown="handlePan(1,0)"/>
  <use id="arrowdown" xlink:href="#arrowDown" x="0" y="0" onmousedown="handlePan(0,1)"/>
  <use id="arrowleft" xlink:href="#arrowLeft" x="0" y="0" onmousedown="handlePan(-1,0)"/>
</g>
<svg viewBox="0 0 15 15" width="100%" height="30px" preserveAspectRatio="xMaxYMin meet">
 <g id="arrow_out" transform="scale(0.3 0.3)">
  <a xlink:href="structmimicpp_1_1signature__remove__noexcept__inherit__graph_org.svg" target="_base">
   <rect id="button" ry="5" rx="5" y="6" x="6" height="38" width="38"
        fill="#f2f5e9" fill-opacity="0.5" stroke="#606060" stroke-width="1.0"/>
   <path id="arrow"
     d="M 11.500037,31.436501 C 11.940474,20.09759 22.043105,11.32322 32.158766,21.979434 L 37.068811,17.246167 C 37.068811,17.246167 37.088388,32 37.088388,32 L 22.160133,31.978069 C 22.160133,31.978069 26.997745,27.140456 26.997745,27.140456 C 18.528582,18.264221 13.291696,25.230495 11.500037,31.436501 z"
     style="fill:#404040;"/>
  </a>
 </g>
</svg>

<style type='text/css'>
<![CDATA[
[data-mouse-over-selected='false'] { opacity: 0.7; }
[data-mouse-over-selected='true']  { opacity: 1.0; }
]]>
</style>
<script type="application/ecmascript"><![CDATA[
document.addEventListener('DOMContentLoaded', (event) => {
  highlightEdges();
  highlightAdjacentNodes();
});
]]></script>
</svg>
